<?xml version="1.0" standalone="no"?>
<!DOCTYPE svg PUBLIC "-//W3C//DTD SVG 20010904//EN"
 "http://www.w3.org/TR/2001/REC-SVG-20010904/DTD/svg10.dtd">
<svg version="1.0" xmlns="http://www.w3.org/2000/svg"
 width="996.000000pt" height="1920.000000pt" viewBox="0 0 996.000000 1920.000000"
 preserveAspectRatio="xMidYMid meet">

<g transform="translate(0.000000,1920.000000) scale(0.100000,-0.100000)"
fill="#000000" stroke="none">
<path d="M3465 11456 c-15 -23 -15 -29 0 -71 4 -11 9 -27 11 -35 1 -8 6 -31 9
-50 4 -19 12 -41 17 -47 8 -10 3 -13 -22 -13 -24 0 -31 -4 -27 -15 4 -8 1 -17
-5 -21 -7 -4 -6 -9 2 -14 14 -9 -27 -39 -80 -60 -19 -7 -44 -20 -55 -27 -11
-7 -29 -13 -41 -13 -12 0 -27 -7 -34 -15 -7 -8 -21 -15 -31 -15 -10 0 -21 -5
-24 -11 -4 -6 -46 -29 -94 -51 -47 -22 -87 -45 -89 -49 -2 -5 -11 -9 -20 -9
-20 0 -73 -39 -54 -40 8 0 56 22 108 50 51 27 104 55 116 61 13 7 30 16 38 21
8 5 31 15 50 23 19 9 42 19 50 24 9 5 31 12 50 16 19 4 51 18 72 31 21 13 42
24 46 24 5 0 21 9 35 20 54 43 202 67 512 85 160 9 367 22 460 30 359 29 617
35 690 17 81 -20 192 -52 250 -72 38 -13 54 -16 45 -7 -17 15 -77 40 -135 55
-22 6 -72 20 -112 32 -63 18 -99 20 -310 20 -145 0 -287 -6 -363 -15 -69 -8
-165 -17 -215 -20 -49 -3 -108 -9 -130 -14 -37 -8 -148 -16 -408 -27 -60 -2
-113 -7 -118 -10 -5 -3 -9 0 -9 5 0 6 5 11 11 11 5 0 7 5 4 10 -4 6 -12 7 -18
3 -6 -4 -29 -8 -49 -9 -34 -2 -38 1 -38 23 0 13 -7 37 -15 53 -9 17 -15 32
-15 35 2 16 -14 82 -23 93 -14 18 -25 15 -42 -12z m74 -148 c10 -32 14 -63 10
-70 -9 -14 -22 -5 -25 18 -1 9 -6 23 -10 32 -8 20 -13 38 -19 72 -2 14 -4 27
-5 30 -2 3 -2 9 -1 14 1 4 -4 15 -11 23 -9 12 -9 16 3 24 11 7 17 -2 27 -39 8
-26 22 -73 31 -104z m91 -68 c0 -7 -114 -40 -138 -40 -10 0 -19 6 -19 14 0 10
11 12 42 9 27 -4 45 -1 52 8 10 13 63 20 63 9z"/>
<path d="M5030 11273 c-14 -3 -67 -24 -118 -48 l-93 -44 -47 16 c-26 8 -51 17
-57 18 -17 4 -49 16 -68 26 -10 5 -23 7 -29 3 -10 -6 90 -47 150 -61 12 -3 22
-8 22 -12 -1 -3 -64 -37 -140 -76 -197 -98 -195 -97 -198 -107 -6 -14 -34 -9
-48 10 -9 11 -13 13 -14 4 0 -8 -5 -10 -12 -5 -7 4 -33 15 -58 23 -25 9 -44
20 -43 25 1 6 -11 11 -25 11 -35 2 -117 11 -117 14 0 1 -11 3 -25 5 -30 4
-212 56 -294 84 -33 12 -69 21 -80 21 -33 -1 271 -100 305 -100 8 0 19 -4 24
-9 6 -5 35 -11 65 -15 81 -8 75 -7 249 -71 l35 -13 -85 -43 c-104 -53 -105
-54 -259 -129 -189 -91 -257 -129 -235 -129 11 -1 38 10 60 24 22 14 105 56
185 95 80 38 159 77 175 86 17 9 57 31 90 47 33 17 63 35 66 39 8 12 136 -99
319 -277 91 -89 198 -192 239 -230 80 -76 244 -244 332 -340 30 -32 63 -68 74
-80 11 -11 34 -38 50 -60 40 -55 146 -179 157 -183 13 -6 9 7 -9 27 -10 10
-49 57 -88 105 -114 142 -315 357 -499 535 -38 36 -92 89 -121 116 -29 28
-101 97 -161 155 -60 58 -142 134 -182 170 -39 35 -72 67 -72 70 0 3 10 11 21
19 18 10 23 10 30 0 6 -11 11 -10 26 2 17 14 100 56 223 113 30 14 47 25 37
26 -9 0 -43 -14 -74 -30 -31 -17 -61 -29 -66 -27 -12 4 149 87 168 87 26 0
140 -58 155 -79 8 -11 25 -21 38 -21 25 0 62 -17 75 -34 6 -7 7 -6 5 4 -3 7
-18 21 -34 31 -16 9 -47 27 -69 40 -22 12 -64 35 -94 49 l-54 27 64 31 c39 18
75 28 89 25 17 -3 37 5 59 21 34 25 32 28 -19 19z m-402 -210 c-10 -2 -18 -9
-18 -14 0 -6 -4 -7 -10 -4 -5 3 -10 2 -10 -2 0 -8 -37 -25 -85 -41 -5 -2 17
12 50 32 33 19 67 34 75 34 10 0 9 -2 -2 -5z"/>
<path d="M4278 11208 c-3 -7 -16 -12 -29 -11 -18 2 -38 -10 -69 -42 -24 -25
-50 -45 -57 -45 -7 0 -13 -4 -13 -10 0 -21 28 -8 65 31 22 22 49 45 60 51 14
7 12 2 -7 -16 -32 -31 -36 -41 -10 -27 26 14 88 81 75 81 -6 0 -13 -6 -15 -12z"/>
<path d="M5570 11169 c182 -88 349 -178 380 -204 27 -23 60 -37 60 -25 0 6
-11 15 -24 20 -13 5 -31 19 -40 32 -9 12 -16 19 -16 15 0 -3 -17 3 -37 14 -21
12 -65 36 -98 54 -33 18 -81 43 -106 57 -25 14 -59 28 -75 31 -16 3 -38 8 -49
12 -11 3 -9 0 5 -6z"/>
<path d="M3540 11161 c0 -6 12 -47 26 -93 15 -46 27 -87 29 -93 1 -5 7 -23 14
-38 6 -16 23 -70 37 -120 23 -82 43 -134 44 -115 0 14 -60 240 -70 257 -5 10
-7 21 -4 23 2 3 -2 11 -11 18 -8 7 -15 20 -15 29 0 9 -7 36 -16 61 -8 24 -13
52 -11 62 3 11 0 18 -9 18 -8 0 -14 -4 -14 -9z"/>
<path d="M3590 11145 c0 -6 9 -35 20 -64 11 -30 18 -57 15 -59 -3 -3 -1 -10 4
-16 4 -6 30 -78 56 -161 26 -82 51 -159 55 -170 17 -44 111 -344 125 -399 8
-33 28 -96 44 -140 16 -45 46 -133 66 -196 20 -63 40 -123 45 -132 6 -10 10
-24 10 -31 0 -23 42 -149 47 -143 3 3 -1 27 -10 53 -8 26 -23 79 -33 118 -9
38 -21 77 -25 85 -12 20 -89 263 -89 278 0 7 -4 12 -10 12 -10 0 -32 69 -25
80 2 3 -5 33 -16 65 -11 33 -17 65 -15 72 3 7 1 13 -4 13 -6 0 -10 9 -10 20 0
11 -4 28 -9 38 -28 57 -43 97 -70 177 -73 225 -111 345 -125 403 -14 56 -46
123 -46 97z"/>
<path d="M3354 11057 c-21 -18 -54 -43 -71 -56 -18 -12 -33 -27 -33 -32 0 -5
8 -2 18 6 9 7 43 35 75 61 51 42 63 54 54 54 -2 0 -21 -15 -43 -33z"/>
<path d="M4050 11005 c-13 -14 -27 -25 -31 -25 -5 0 -19 -11 -33 -25 -14 -14
-21 -25 -15 -25 6 0 7 -5 4 -10 -4 -6 -11 -7 -17 -4 -7 4 -8 2 -4 -5 4 -6 2
-18 -4 -26 -14 -17 -35 -21 -25 -5 17 27 -8 3 -59 -56 -31 -36 -53 -70 -50
-75 3 -6 0 -18 -7 -27 -19 -28 58 56 174 186 59 67 104 122 99 122 -5 0 -19
-11 -32 -25z m-171 -199 c-24 -30 -48 -55 -52 -56 -5 0 0 10 10 23 65 81 78
96 81 92 3 -2 -15 -29 -39 -59z"/>
<path d="M3204 10927 l-29 -32 30 25 c17 14 32 26 34 28 2 1 2 4 -1 7 -2 3
-18 -10 -34 -28z"/>
<path d="M6033 10926 c0 -8 6 -12 14 -9 7 3 10 9 7 14 -8 14 -21 11 -21 -5z"/>
<path d="M6070 10911 c0 -5 9 -13 20 -16 11 -3 20 -11 20 -16 0 -5 7 -9 15 -9
8 0 15 -4 15 -9 0 -5 9 -12 19 -16 11 -3 36 -21 57 -40 21 -19 44 -35 51 -35
7 0 13 -4 13 -10 0 -5 6 -10 14 -10 8 0 16 -3 18 -7 3 -8 12 -15 148 -108 47
-32 99 -70 115 -84 17 -14 44 -35 59 -46 16 -11 49 -37 73 -57 24 -21 48 -38
54 -38 16 0 10 15 -12 30 -12 8 -31 24 -43 36 -21 20 -203 159 -235 179 -9 6
-18 12 -21 16 -3 3 -23 16 -45 29 -22 13 -44 28 -50 32 -5 4 -23 18 -40 31
-34 26 -150 103 -207 136 -21 13 -38 18 -38 12z"/>
<path d="M5370 10875 c7 -9 15 -13 18 -11 2 3 11 -1 18 -9 8 -8 52 -39 97 -69
147 -99 206 -143 361 -270 53 -43 99 -76 102 -74 4 5 -165 148 -251 211 -27
20 -55 41 -61 45 -5 5 -55 39 -110 75 -54 36 -110 74 -124 84 -13 10 -33 21
-44 26 -16 6 -17 5 -6 -8z"/>
<path d="M3099 10827 c-31 -28 -101 -94 -156 -144 -68 -63 -103 -103 -109
-125 -11 -38 -24 -41 -219 -55 -60 -4 -96 -9 -80 -10 17 -2 82 0 145 5 63 5
116 8 118 7 6 -5 -105 -255 -113 -255 -5 0 13 59 25 82 6 10 6 19 1 23 -9 5
-16 -10 -29 -55 -2 -8 -5 -27 -6 -42 0 -16 -4 -28 -7 -28 -4 0 -9 -12 -12 -27
-3 -16 -24 -82 -47 -148 -39 -111 -41 -125 -35 -187 5 -57 4 -67 -8 -62 -11 4
-16 -5 -20 -33 -3 -21 -6 -45 -6 -53 0 -8 -2 -28 -6 -45 -42 -197 -112 -685
-95 -668 3 2 10 39 17 81 6 42 18 116 27 164 9 48 20 118 26 155 16 117 22
148 27 153 3 3 2 -20 -2 -50 -11 -99 -17 -145 -21 -165 -12 -63 -16 -148 -7
-142 6 4 14 37 19 74 4 38 8 71 10 76 1 4 2 14 3 22 1 10 11 13 35 11 19 -1
33 1 30 5 -6 10 68 -1 82 -12 6 -5 14 -6 17 -2 4 3 7 1 7 -6 0 -7 6 -11 13 -8
6 2 28 -2 49 -9 20 -7 39 -10 42 -7 3 4 16 -2 28 -13 12 -10 18 -14 15 -7 -11
18 1 21 96 27 47 3 95 10 106 15 26 14 34 14 25 -1 -4 -7 -3 -8 5 -4 6 4 9 11
6 16 -8 13 57 9 74 -4 12 -9 13 -8 7 3 -6 9 -5 12 5 9 8 -3 13 -11 12 -17 -2
-6 0 -10 5 -9 9 3 58 -29 91 -59 13 -13 28 -23 33 -23 5 0 6 -9 3 -21 -5 -14
-1 -25 12 -34 24 -19 33 -18 33 1 0 9 16 -4 39 -30 l39 -45 16 25 c9 13 13 24
9 23 -20 -3 -27 2 -13 11 10 6 11 10 3 10 -7 0 -13 5 -13 10 0 7 6 7 19 1 16
-9 18 -8 14 9 -3 11 -1 20 4 20 5 0 23 13 41 29 17 17 32 27 32 24 0 -3 7 0
15 7 8 6 19 9 25 5 5 -3 10 2 10 13 0 23 23 35 38 20 6 -6 12 -6 17 3 6 8 4
10 -5 4 -9 -5 -11 -4 -6 3 4 7 13 12 19 12 7 0 52 24 102 54 56 34 95 51 104
47 8 -5 25 3 44 21 17 15 37 28 43 28 7 0 14 5 16 12 2 6 26 13 52 15 50 5
108 -13 157 -48 48 -34 55 -20 11 21 -25 23 -40 45 -36 52 4 7 3 8 -5 4 -6 -4
-9 -12 -6 -17 10 -14 -3 -11 -25 8 -20 17 -29 50 -11 39 5 -4 12 7 16 24 4 16
10 30 13 30 9 0 32 49 32 67 0 16 12 17 30 1 12 -11 12 -10 1 5 -21 27 2 20
39 -13 18 -16 44 -37 56 -47 13 -10 24 -23 24 -29 0 -7 7 -15 16 -18 10 -4 14
-13 11 -26 -4 -15 -1 -20 11 -18 9 2 17 -4 17 -12 0 -9 8 -14 19 -12 13 3 17
-1 13 -12 -4 -10 -1 -13 9 -9 14 5 18 -6 15 -37 -2 -12 0 -13 7 -1 8 10 15 7
33 -18 24 -32 42 -42 33 -16 -4 9 0 15 8 15 8 0 34 10 59 22 24 12 49 21 56
20 7 -2 15 10 19 25 3 15 7 34 10 41 7 23 -11 12 -28 -18 -17 -30 -85 -69
-121 -70 -9 0 -39 23 -66 51 l-49 51 52 52 c65 63 100 112 86 121 -5 3 -10 1
-10 -4 0 -21 -132 -151 -145 -143 -11 6 -80 64 -125 106 -28 25 -60 38 -60 24
0 -11 -2 -10 -9 0 -10 17 -21 4 -49 -58 -11 -25 -34 -61 -52 -80 -17 -19 -29
-30 -26 -23 4 6 1 13 -6 15 -6 2 -13 11 -14 19 -2 7 -8 32 -13 54 -4 22 -18
61 -29 87 -11 25 -18 49 -15 52 3 3 -1 20 -10 38 -8 18 -29 71 -45 118 -36
103 -61 160 -62 141 0 -19 70 -224 81 -236 5 -5 9 -20 9 -35 1 -14 9 -43 20
-65 11 -22 19 -48 20 -58 0 -9 4 -25 9 -35 22 -45 30 -86 19 -99 -6 -7 -13
-12 -15 -9 -2 2 -16 -7 -31 -21 -36 -33 -76 -53 -137 -69 -112 -28 -180 -49
-183 -56 -2 -5 -15 -8 -29 -8 -13 0 -58 -12 -100 -26 -41 -14 -77 -23 -80 -20
-3 3 -28 -4 -57 -14 -28 -11 -61 -20 -73 -20 -13 0 -23 -4 -23 -10 0 -18 -19
-10 -72 30 -29 21 -57 36 -63 31 -5 -4 -23 -6 -40 -6 -16 1 -36 -3 -44 -9 -19
-15 -38 -18 -116 -21 -38 -2 -70 -4 -70 -5 0 -1 -13 -3 -29 -5 -16 -1 -61 9
-100 23 -51 18 -94 25 -149 26 l-79 1 7 40 c5 35 38 272 51 365 2 19 7 53 10
75 3 22 10 55 15 73 6 18 8 43 5 55 -8 30 32 139 99 275 31 63 58 121 60 131
6 30 42 86 54 83 15 -3 177 13 331 33 63 8 129 15 146 15 l32 0 -18 -80 c-10
-44 -14 -77 -9 -74 5 3 9 12 9 21 0 9 7 43 17 76 11 41 23 61 37 67 20 8 20 9
-4 11 -33 2 -141 -8 -185 -17 -11 -3 -58 -9 -105 -15 -47 -5 -114 -14 -150
-19 -88 -13 -90 -13 -90 11 0 33 16 54 103 136 169 161 212 203 207 203 -3 0
-30 -24 -61 -53z m-542 -1174 c-3 -10 -5 -2 -5 17 0 19 2 27 5 18 2 -10 2 -26
0 -35z m-7 -63 c0 -11 -4 -20 -9 -20 -5 0 -7 9 -4 20 3 11 7 20 9 20 2 0 4 -9
4 -20z m1230 -134 c0 -2 -7 -7 -16 -10 -8 -3 -12 -2 -9 4 6 10 25 14 25 6z
m-260 -86 c0 -5 -6 -10 -12 -10 -7 0 -24 -12 -37 -25 -16 -17 -30 -24 -42 -20
-11 4 -19 2 -19 -6 0 -9 -4 -8 -15 1 -9 7 -15 8 -15 2 0 -18 -27 -21 -51 -4
-23 16 -23 17 51 35 41 10 86 20 98 22 13 2 26 6 30 9 8 9 12 7 12 -4z m-48
-99 c-47 -48 -51 -49 -66 -32 -20 22 -21 41 -1 41 8 0 15 5 15 10 0 6 10 10
23 10 12 1 33 7 47 15 40 22 35 10 -18 -44z m-117 -21 c3 -5 2 -10 -4 -10 -5
0 -13 5 -16 10 -3 6 -2 10 4 10 5 0 13 -4 16 -10z"/>
<path d="M4223 10845 c-12 -8 -59 -32 -105 -52 -46 -21 -85 -40 -88 -43 -3 -3
-18 -12 -35 -20 -16 -8 -47 -25 -67 -37 -21 -13 -44 -23 -53 -23 -8 0 -15 -5
-15 -11 0 -5 -4 -8 -9 -4 -6 3 -14 -2 -19 -11 -5 -9 -12 -15 -15 -15 -21 3
-27 -1 -27 -15 0 -21 31 -11 83 27 22 16 46 29 54 29 7 0 13 5 13 10 0 6 4 10
9 10 13 0 71 28 126 61 28 16 57 32 65 35 37 14 115 56 127 68 13 13 -23 6
-44 -9z"/>
<path d="M2720 10792 c-30 -15 -57 -29 -60 -32 -13 -14 -108 -70 -119 -70 -6
0 -17 -5 -24 -10 -7 -6 -25 -21 -42 -35 -16 -13 -26 -27 -23 -30 3 -3 12 1 20
8 8 8 38 27 67 41 28 15 60 34 70 44 17 17 38 29 131 80 79 42 64 46 -20 4z"/>
<path d="M2723 10733 c9 -2 25 -2 35 0 9 3 1 5 -18 5 -19 0 -27 -2 -17 -5z"/>
<path d="M2808 10723 c42 -8 13 -20 -40 -17 -41 3 -47 2 -26 -5 15 -5 44 -7
65 -5 21 3 58 5 83 5 60 0 26 14 -50 21 -30 3 -45 3 -32 1z"/>
<path d="M3040 10710 c0 -5 10 -11 23 -11 12 -1 31 -3 42 -5 153 -22 583 -58
572 -48 -10 10 -20 11 -131 19 -101 6 -448 43 -483 50 -13 3 -23 1 -23 -5z"/>
<path d="M3031 10675 c3 -2 50 -12 105 -20 54 -9 106 -17 114 -19 105 -17 239
-26 245 -15 3 3 -35 9 -83 12 -48 3 -145 15 -217 26 -132 21 -172 25 -164 16z"/>
<path d="M3711 10623 c11 -26 18 -55 16 -65 -3 -10 -1 -16 4 -12 5 3 9 -6 9
-20 0 -14 3 -26 8 -26 7 0 21 -27 42 -84 9 -24 8 -27 -5 -22 -13 5 -13 1 1
-32 9 -20 28 -71 42 -112 33 -98 41 -72 9 33 -13 45 -38 129 -55 187 -35 118
-68 200 -82 200 -5 0 0 -21 11 -47z"/>
<path d="M2350 10570 c-8 -16 -8 -18 4 -14 17 6 30 34 16 34 -5 0 -14 -9 -20
-20z"/>
<path d="M3617 10574 c-1 -1 -49 -5 -106 -9 -58 -4 -114 -11 -125 -15 -13 -5
14 -7 64 -4 47 3 126 5 175 4 65 -1 87 2 79 10 -9 9 -80 21 -87 14z"/>
<path d="M2244 10512 c-49 -45 -81 -89 -71 -98 2 -2 34 29 71 71 77 85 76 98
0 27z"/>
<path d="M3228 10540 c-26 -3 -51 -10 -55 -14 -4 -5 3 -6 17 -3 14 4 51 7 83
7 31 0 57 3 57 8 0 9 -42 10 -102 2z"/>
<path d="M4840 10541 c0 -6 4 -11 10 -11 11 0 301 -292 295 -298 -2 -2 -14 3
-27 12 -12 9 -33 16 -46 16 -12 0 -26 8 -29 18 -10 25 -31 44 -42 37 -6 -3
-15 0 -20 7 -6 7 -19 23 -29 35 -9 12 -28 24 -42 28 -21 6 -18 2 16 -28 45
-40 69 -86 61 -118 -4 -16 -3 -18 8 -9 9 8 12 22 8 41 -8 44 6 35 29 -18 19
-44 22 -46 29 -25 8 22 9 22 41 6 18 -9 41 -25 51 -35 10 -11 22 -17 26 -15
12 8 90 -80 286 -323 22 -27 44 -47 49 -44 5 4 6 1 2 -5 -10 -17 -27 -14 -56
8 -36 28 -58 26 -52 -5 6 -31 19 -40 37 -25 10 8 22 8 47 -3 18 -8 38 -12 44
-10 6 2 14 -2 16 -9 4 -10 -8 -13 -46 -12 -28 1 -56 -3 -63 -8 -7 -5 -17 -7
-23 -3 -6 4 -17 1 -25 -5 -8 -7 -15 -10 -15 -7 0 5 -37 -7 -95 -33 -11 -4 -45
-16 -75 -25 -30 -9 -117 -39 -194 -67 -76 -27 -173 -58 -215 -68 -42 -11 -141
-41 -221 -68 -187 -64 -252 -83 -435 -128 -82 -20 -159 -41 -170 -47 -23 -12
-67 -20 -113 -20 -18 0 -27 -4 -21 -7 15 -10 0 -18 -47 -26 -22 -3 -46 -10
-55 -14 -8 -5 -46 -16 -84 -25 -38 -8 -74 -20 -82 -26 -7 -6 -28 -9 -47 -7
-23 2 -32 0 -29 -8 2 -7 -4 -15 -14 -17 -23 -7 -85 -20 -98 -22 -5 0 -28 -9
-50 -18 -33 -15 -44 -16 -60 -6 -18 11 -18 10 -7 -3 11 -14 6 -18 -40 -27 -29
-6 -82 -22 -118 -35 -78 -28 -241 -80 -405 -130 -66 -21 -129 -41 -141 -45
-12 -5 -28 -5 -39 1 -12 7 -16 7 -11 0 9 -14 -24 -23 -103 -29 -93 -7 -113 -9
-141 -16 -14 -4 -45 -9 -69 -11 -24 -3 -47 -10 -52 -17 -6 -10 -11 -10 -22 -1
-7 7 -16 9 -20 6 -7 -7 -67 -15 -124 -16 -24 -1 -43 -5 -43 -10 0 -5 -4 -6
-10 -3 -6 3 -15 3 -20 0 -6 -4 -40 -9 -77 -11 -36 -2 -72 -9 -79 -14 -8 -8
-13 -7 -16 0 -4 14 -58 -4 -58 -20 0 -7 -6 -8 -19 0 -30 16 -59 12 -81 -10
-20 -20 -46 -28 -36 -11 4 5 -12 7 -36 5 -56 -6 -71 -12 -63 -24 4 -6 -5 -7
-25 -4 -23 5 -30 3 -30 -10 0 -9 -5 -16 -11 -16 -5 0 -7 5 -4 10 3 6 -3 10
-14 10 -11 0 -23 -5 -27 -12 -5 -8 -2 -9 9 -5 10 3 17 2 17 -3 0 -5 -8 -10
-18 -12 -11 -2 -22 7 -31 27 -8 16 -13 34 -12 38 0 4 3 16 4 27 2 11 6 23 10
26 4 4 7 16 7 27 0 12 5 17 14 14 11 -4 11 -1 2 18 -10 23 -13 19 -34 -48 -35
-109 -81 -322 -71 -325 5 -2 6 -9 3 -14 -4 -7 -2 -8 5 -4 6 4 9 12 6 17 -4 5
-2 9 3 9 5 0 12 12 15 28 15 74 30 128 39 133 6 4 19 4 29 2 10 -3 19 0 19 6
0 6 3 10 8 10 4 -1 9 0 12 1 3 1 16 4 30 5 14 1 38 7 53 14 16 6 41 11 56 11
15 0 31 3 35 7 3 4 30 8 59 10 49 3 96 9 107 13 3 1 12 2 22 1 9 -1 19 3 23 9
4 7 12 7 25 0 13 -7 21 -7 25 0 3 5 24 10 45 10 21 0 41 4 44 8 2 4 17 7 33 6
15 -1 36 3 46 8 9 5 50 11 90 14 71 4 74 3 85 -21 10 -21 8 -26 -8 -38 -11 -7
-27 -31 -35 -51 -15 -36 -15 -40 2 -60 34 -37 42 -69 27 -97 -7 -13 -13 -35
-14 -48 0 -13 -9 -61 -20 -108 -12 -46 -18 -88 -15 -94 4 -5 1 -33 -5 -62 -6
-30 -13 -134 -16 -233 -2 -98 -7 -197 -10 -220 -4 -30 -2 -44 11 -54 15 -13
16 -11 10 23 -5 23 -3 37 3 37 17 0 18 -18 10 -94 -5 -39 -9 -141 -10 -226 -2
-147 0 -159 26 -230 16 -41 31 -88 35 -104 6 -26 14 -31 81 -51 70 -21 170
-41 143 -29 -27 12 -11 21 45 27 31 3 79 13 107 22 44 15 58 16 120 5 96 -17
113 -27 125 -69 5 -20 10 -41 10 -48 0 -21 78 -270 99 -319 12 -27 29 -56 37
-65 15 -16 93 -35 123 -30 13 2 13 0 1 -16 -8 -10 -25 -28 -37 -40 -38 -37
-30 -72 37 -153 20 -25 54 -71 75 -102 38 -58 55 -71 55 -42 0 31 18 3 34 -56
10 -33 21 -58 25 -56 11 7 65 -210 57 -230 -5 -13 -9 -14 -21 -4 -8 7 -15 8
-15 3 0 -6 -30 -11 -67 -12 -38 -1 -137 -8 -222 -16 -85 -8 -186 -15 -224 -15
-39 0 -67 -3 -64 -7 4 -3 40 -6 79 -5 l73 0 -60 -9 c-91 -13 -98 -18 -20 -14
39 2 60 1 48 -1 -67 -15 13 -19 358 -16 331 2 380 4 375 17 -3 9 1 15 10 15 8
0 13 -4 10 -9 -13 -20 -19 -19 369 -7 116 3 182 2 170 -4 -11 -5 -54 -9 -96
-9 -92 -1 -141 -10 -132 -24 4 -6 -4 -7 -21 -3 -18 4 -25 3 -21 -4 9 -14 51
-12 67 3 9 10 58 16 158 20 145 7 180 10 255 24 22 3 45 7 50 8 6 1 46 3 90 5
80 3 80 3 25 10 -34 3 -49 9 -40 13 8 4 35 5 60 2 60 -8 176 -14 279 -14 129
-1 87 -14 -67 -21 l-137 -7 153 -1 c104 -1 152 1 152 9 0 11 238 5 318 -7 17
-3 32 -1 32 4 0 5 -55 12 -122 15 -206 11 -387 30 -382 39 3 5 14 6 24 3 25
-8 144 -8 169 0 32 10 25 27 -6 18 -16 -4 -46 -7 -68 -5 -22 1 -107 3 -190 3
-104 0 -158 4 -177 13 -17 9 -30 10 -36 4 -10 -10 -215 -13 -231 -4 -5 4 -12
2 -16 -4 -6 -9 8 -14 28 -11 5 1 6 -3 3 -8 -3 -5 -15 -7 -25 -4 -24 6 -41 51
-41 105 0 25 -4 37 -11 33 -6 -4 -10 -1 -8 6 5 38 -5 43 -99 52 -26 2 -36 10
-50 37 -11 23 -23 34 -35 33 -9 -2 -24 -4 -33 -5 -32 -5 -25 20 9 31 19 6 44
23 55 36 12 14 27 25 33 25 8 0 9 4 0 13 -6 8 -8 17 -4 20 3 4 -1 7 -9 7 -9 0
-19 7 -22 16 -4 11 -2 15 6 12 76 -29 88 -31 120 -22 20 6 55 7 88 1 54 -8 56
-7 81 22 14 17 30 31 35 31 5 0 22 13 39 28 l29 28 43 -24 c24 -13 43 -28 43
-33 0 -15 26 -10 52 10 30 24 82 38 173 47 39 3 77 10 85 14 8 4 20 5 27 3 7
-2 46 12 87 31 42 20 80 36 85 36 10 0 167 65 193 80 10 5 23 10 29 10 19 0
148 68 224 119 38 25 84 47 100 48 17 1 35 2 40 2 6 1 27 17 48 37 29 27 37
43 37 70 0 19 -5 34 -12 34 -6 0 -3 10 8 23 11 12 21 38 23 57 2 19 6 42 11
50 13 26 21 70 13 70 -9 0 -43 -73 -43 -92 0 -8 -3 -9 -11 -1 -5 5 -12 39 -14
74 l-4 64 25 -30 c13 -16 24 -25 24 -19 0 6 -6 17 -13 23 -8 6 -24 31 -37 55
-12 25 -28 46 -34 48 -7 2 -57 50 -111 108 -54 58 -105 106 -112 108 -7 2 -11
7 -9 10 2 4 -7 8 -21 9 -14 0 -29 7 -34 15 -5 7 -9 9 -9 4 0 -5 -13 5 -29 22
-16 16 -44 35 -63 41 -51 16 -198 59 -249 72 -36 10 -45 16 -42 30 7 25 -15
86 -32 93 -10 4 -15 20 -15 49 0 29 -7 53 -20 70 -11 14 -21 38 -22 54 -3 40
-20 53 -68 53 -44 0 -139 42 -141 63 -1 6 -3 23 -6 37 -2 14 -4 33 -4 42 0 12
-7 17 -21 15 -26 -3 -31 19 -32 133 -1 88 25 182 55 201 11 6 10 9 -4 15 -10
3 -16 11 -15 18 1 6 -5 24 -12 39 -12 25 -11 30 6 45 10 9 13 10 6 3 -20 -25
-14 -30 17 -15 28 14 50 44 32 44 -5 0 -7 9 -4 20 3 11 9 20 14 20 5 0 18 18
29 39 24 47 31 107 13 103 -7 -1 -13 4 -13 12 0 7 -11 25 -25 40 -26 28 -32
46 -15 46 6 0 10 19 10 42 0 43 14 131 32 203 6 22 9 59 9 82 -1 34 2 43 19
48 11 3 20 11 20 16 0 6 -8 8 -19 4 -28 -9 -50 4 -44 26 3 11 0 19 -6 19 -7 0
-10 4 -7 8 3 5 -5 46 -18 93 -33 118 -30 139 17 155 l38 13 -32 -40 c-36 -45
-33 -65 4 -25 13 14 26 23 29 20 8 -7 -11 -85 -23 -101 -16 -19 -1 -36 17 -19
8 8 14 19 14 24 0 16 34 85 64 129 35 52 56 62 56 27 0 -19 4 -25 15 -21 20 8
28 -8 11 -22 -21 -17 -41 -131 -23 -131 4 0 7 13 7 29 0 16 7 34 15 41 8 6 14
15 13 18 -3 17 15 62 26 62 6 1 2 6 -9 13 -11 7 -20 19 -20 27 0 17 21 34 34
26 5 -3 40 5 77 19 38 14 70 25 72 25 1 0 -2 -9 -8 -21 -7 -11 -9 -27 -6 -35
3 -8 1 -14 -4 -14 -6 0 -10 -11 -10 -25 0 -14 4 -25 10 -25 9 0 30 62 30 92 0
9 5 20 11 23 7 5 10 -19 8 -74 -1 -45 1 -84 5 -88 3 -3 6 1 6 10 0 9 11 32 24
51 l23 35 31 -32 c25 -25 33 -44 38 -88 4 -38 3 -59 -5 -63 -18 -12 -12 -36 9
-36 17 0 20 -7 20 -49 l0 -49 -47 -8 c-39 -7 -49 -13 -51 -32 -2 -12 -10 -23
-18 -23 -30 -3 -34 -4 -34 -14 -1 -5 8 -11 18 -13 13 -2 26 8 41 34 22 36 22
36 77 31 48 -4 54 -3 50 11 -13 46 -16 100 -7 122 5 14 27 43 49 66 l39 41 7
-68 c3 -37 10 -79 15 -92 7 -17 5 -32 -4 -51 -8 -14 -10 -26 -5 -26 14 0 30
35 30 64 0 14 4 27 9 30 5 3 9 17 10 31 5 68 3 68 58 8 43 -48 54 -55 62 -43
9 12 11 13 11 1 0 -8 3 -12 6 -9 3 4 -7 24 -21 47 -15 22 -33 57 -40 78 -7 20
-18 39 -23 41 -15 5 -3 -36 23 -78 38 -63 39 -65 4 -30 -57 58 -79 95 -79 134
0 20 -5 36 -11 36 -6 0 -10 -19 -9 -47 1 -27 1 -75 0 -108 -2 -54 -3 -57 -10
-25 -13 56 -18 140 -9 140 5 0 9 7 9 15 0 26 -45 17 -75 -15 -40 -42 -52 -19
-20 39 14 24 25 53 24 65 0 13 -13 -5 -33 -47 -32 -66 -33 -67 -45 -43 -14 25
-9 108 10 156 14 36 65 61 134 66 33 3 69 11 82 19 21 14 23 12 52 -38 35 -61
111 -147 130 -147 7 0 -9 22 -36 50 -56 58 -109 145 -93 155 6 4 33 8 59 9 47
3 49 2 76 -41 15 -24 36 -48 46 -54 16 -8 19 -6 19 16 0 14 -4 25 -10 25 -5 0
-10 8 -10 18 0 10 -4 22 -9 27 -5 6 -12 20 -15 32 -6 18 -1 25 24 38 18 9 30
19 27 21 -5 6 -69 -27 -79 -40 -7 -10 -58 32 -58 48 0 5 -21 32 -47 60 -58 63
-85 93 -188 216 -100 118 -114 132 -125 125 -5 -3 -12 0 -16 6 -4 8 -3 9 4 5
35 -21 -2 22 -125 147 -140 141 -193 187 -193 168z m760 -809 c0 -10 7 -27 15
-38 8 -10 14 -26 14 -34 -1 -13 -1 -13 -6 0 -3 8 -14 26 -24 39 -21 26 -25 51
-9 51 6 0 10 -8 10 -18z m-428 -123 c-5 -13 -12 -45 -16 -71 -4 -27 -10 -48
-14 -48 -4 0 -16 12 -26 27 -18 24 -18 27 -2 52 10 14 20 34 23 43 4 14 31 29
41 23 1 -1 -1 -13 -6 -26z m-73 -11 c-6 -13 -13 -24 -14 -26 -4 -5 -35 10 -35
18 0 7 30 21 58 29 1 1 -3 -9 -9 -21z m-42 -95 c-14 -31 -21 -22 -12 18 5 21
10 27 15 19 5 -7 3 -24 -3 -37z m-364 -33 c-3 -11 -9 -20 -14 -20 -11 0 -11 3
-3 24 9 23 23 20 17 -4z m507 -91 c0 -4 -4 -11 -10 -14 -5 -3 -10 0 -10 9 0 8
-3 23 -6 33 -5 16 -4 16 10 -1 9 -11 16 -23 16 -27z m-2706 -591 c-4 -18 -11
-58 -15 -88 -7 -48 -8 -45 -4 27 2 55 -1 84 -8 87 -7 2 -2 5 11 5 21 1 23 -2
16 -31z m-204 -99 c0 -18 -4 -28 -10 -24 -7 4 -9 -3 -5 -22 6 -25 5 -26 -6 -9
-9 15 -9 24 0 37 6 11 11 26 11 34 0 8 2 15 5 15 3 0 5 -14 5 -31z m-870 -29
c0 -5 -2 -10 -4 -10 -3 0 -8 5 -11 10 -3 6 -1 10 4 10 6 0 11 -4 11 -10z m724
-37 c-8 -35 -20 -48 -28 -34 -4 6 1 22 11 36 23 31 25 31 17 -2z m1134 10 c-4
-22 -22 -20 -26 1 -2 10 3 16 13 16 10 0 15 -7 13 -17z m1306 -800 c43 -142
54 -193 40 -193 -8 0 -34 27 -34 37 -1 4 -14 24 -30 43 -17 19 -30 44 -30 57
0 12 -4 24 -9 27 -15 10 -10 104 6 111 12 4 14 14 8 43 -12 67 2 30 49 -125z
m-1475 63 c9 -11 9 -16 -1 -22 -7 -4 -10 -4 -6 1 4 4 3 14 -3 22 -6 7 -9 13
-6 13 2 0 10 -6 16 -14z m815 -48 c4 -29 11 -57 16 -63 5 -6 12 -26 15 -45 3
-19 12 -57 20 -84 8 -27 15 -61 15 -75 0 -14 7 -39 15 -54 8 -16 18 -51 21
-79 l7 -51 -48 7 c-26 4 -61 16 -79 27 -17 10 -41 19 -53 19 -13 0 -23 3 -24
8 -3 30 -10 47 -29 64 -17 16 -21 28 -16 52 4 17 11 33 16 34 6 2 10 9 10 16
0 7 11 25 25 40 24 26 24 29 10 57 -9 16 -20 29 -25 29 -6 0 -10 14 -10 30 0
17 4 30 9 30 5 0 25 23 45 50 20 28 40 48 45 46 5 -3 11 -29 15 -58z m59 37
c-3 -9 -8 -14 -10 -11 -3 3 -2 9 2 15 9 16 15 13 8 -4z m705 -50 c41 -5 63
-16 59 -29 -3 -6 2 -19 11 -28 13 -16 13 -25 -5 -85 -14 -47 -26 -69 -38 -71
-11 -3 -15 0 -11 7 10 15 0 14 -34 -4 -16 -8 -31 -11 -34 -6 -4 5 -2 11 3 13
5 1 11 22 15 46 3 23 10 51 16 61 7 14 6 28 -2 48 l-12 28 -4 -27 c-4 -35 -27
-37 -30 -2 -1 14 -6 34 -12 44 -18 34 -12 41 21 25 16 -9 42 -18 57 -20z
m-2479 -114 c0 -10 -3 -8 -9 7 -11 25 -16 27 -26 10 -4 -7 -3 -8 4 -4 8 5 10
1 6 -9 -10 -26 -26 -1 -18 29 l6 26 19 -21 c11 -12 19 -29 18 -38z m2577 -17
c-1 -19 1 -37 6 -40 10 -6 9 -72 0 -97 -7 -16 -10 -16 -30 8 l-23 26 21 69
c12 39 23 70 25 70 2 0 3 -16 1 -36z m61 -117 c12 -15 19 -36 16 -47 -5 -18
-7 -18 -34 -4 -23 11 -27 18 -20 32 4 9 7 28 4 42 -4 26 0 24 34 -23z m487
-282 c20 -10 36 -21 36 -25 0 -4 19 -28 43 -54 24 -25 41 -46 39 -46 -3 0 -28
14 -58 30 -29 17 -66 32 -83 33 -26 2 -33 9 -50 49 l-19 46 28 -8 c15 -4 44
-16 64 -25z m-1052 -1517 c-7 -7 -12 -8 -12 -2 0 14 12 26 19 19 2 -3 -1 -11
-7 -17z m388 2 c0 -5 -8 -10 -17 -10 -15 0 -16 2 -3 10 19 12 20 12 20 0z
m-1622 -17 c-10 -2 -26 -2 -35 0 -10 3 -2 5 17 5 19 0 27 -2 18 -5z m217 -18
c28 -2 56 -4 63 -4 7 -1 11 -5 8 -9 -3 -5 -69 -7 -148 -6 -397 6 -412 8 -213
23 101 7 141 6 290 -4z m968 -12 c-13 -2 -35 -2 -50 0 -16 2 -5 4 22 4 28 0
40 -2 28 -4z"/>
<path d="M2403 10483 c9 -2 25 -2 35 0 9 3 1 5 -18 5 -19 0 -27 -2 -17 -5z"/>
<path d="M2565 10480 l-70 -6 70 -1 c39 -1 93 2 120 7 l50 7 -50 0 c-27 0 -81
-3 -120 -7z"/>
<path d="M2290 10470 c-8 -5 -11 -12 -8 -15 4 -4 17 0 30 9 24 17 5 23 -22 6z"/>
<path d="M6333 10404 c-106 -7 -200 -17 -210 -23 -15 -9 -12 -10 17 -10 19 0
69 4 110 9 41 5 143 12 225 16 83 4 157 10 165 15 20 11 -73 9 -307 -7z"/>
<path d="M6760 10389 c0 -6 24 -32 53 -57 28 -26 64 -59 79 -74 28 -30 43 -35
53 -17 8 12 -12 32 -105 106 -67 54 -80 61 -80 42z"/>
<path d="M4525 10370 c-4 -6 -3 -25 0 -42 8 -36 154 -188 180 -188 9 0 13 5
10 10 -3 6 -12 10 -19 10 -6 0 -32 21 -56 46 -25 26 -40 45 -35 42 6 -2 26
-11 45 -20 55 -24 93 -31 88 -16 -3 7 -15 14 -29 16 -36 4 -81 24 -103 44 -11
10 -28 18 -37 18 -12 0 -18 8 -18 23 0 12 -1 32 -1 45 0 23 -14 30 -25 12z"/>
<path d="M6045 10350 c10 -11 18 -29 19 -41 1 -27 31 -48 46 -33 8 8 0 23 -26
52 -20 23 -41 42 -47 42 -5 0 -2 -9 8 -20z"/>
<path d="M5725 10340 c-164 -23 -335 -60 -335 -72 0 -12 24 -10 72 6 43 14 96
25 153 32 17 2 54 9 84 14 30 6 85 10 123 10 39 0 68 4 68 10 0 11 -87 11
-165 0z"/>
<path d="M6020 10342 c0 -4 9 -13 20 -19 16 -11 18 -10 14 1 -6 15 -34 30 -34
18z"/>
<path d="M6695 10338 c-16 -5 -39 -14 -50 -19 -11 -4 -40 -15 -65 -23 -25 -9
-86 -35 -135 -58 -50 -23 -94 -43 -100 -43 -5 -1 -26 -9 -45 -19 -19 -10 -96
-50 -170 -88 -141 -73 -411 -230 -405 -236 2 -2 23 7 47 21 294 165 649 345
671 339 4 -1 7 3 7 8 0 6 7 10 16 10 8 0 32 9 52 19 48 26 125 55 185 71 26 7
47 17 47 21 0 11 -16 10 -55 -3z"/>
<path d="M5375 10295 c-53 -25 -118 -74 -98 -75 6 0 15 4 18 10 3 5 15 15 26
20 19 11 19 10 4 -26 -18 -43 -19 -70 -4 -79 6 -4 9 -1 8 6 -11 56 33 124 101
153 23 10 28 15 15 15 -11 0 -42 -11 -70 -24z"/>
<path d="M3316 10228 c-10 -131 -14 -458 -6 -453 5 3 9 98 10 210 1 189 3 227
16 293 2 12 0 22 -5 22 -5 0 -12 -33 -15 -72z"/>
<path d="M2017 10228 c-69 -86 -199 -289 -287 -450 -6 -10 -15 -26 -20 -35 -6
-10 -13 -25 -17 -33 -3 -8 -15 -27 -25 -42 -10 -14 -18 -33 -18 -41 0 -9 -4
-17 -8 -19 -16 -6 -162 -324 -165 -355 0 -7 -4 -13 -8 -13 -4 0 -11 -10 -14
-22 -4 -13 -26 -68 -50 -123 -47 -109 -77 -227 -66 -257 5 -13 12 5 25 59 10
43 27 103 38 133 11 30 22 66 25 80 2 14 10 32 17 40 6 8 23 42 36 75 12 33
40 97 62 142 21 46 38 87 38 92 0 5 3 11 8 13 4 2 23 37 41 78 19 41 37 77 40
80 3 3 19 32 35 65 66 135 243 422 334 543 36 47 19 39 -21 -10z"/>
<path d="M2450 10248 c-11 -12 -20 -25 -20 -30 0 -4 -7 -5 -15 -2 -9 4 -15 0
-15 -8 0 -8 -9 -23 -19 -35 -11 -11 -28 -38 -39 -59 -11 -21 -31 -61 -45 -88
-14 -26 -23 -54 -20 -61 2 -8 -21 -66 -51 -131 -31 -64 -54 -119 -52 -122 9
-8 127 249 120 261 -4 7 -3 9 1 4 9 -7 95 147 95 171 0 6 4 12 10 12 5 0 6 7
3 17 -4 10 -2 14 5 9 6 -3 18 7 28 24 10 16 21 30 25 30 4 0 9 7 13 15 8 21 0
19 -24 -7z m-78 -130 c-7 -7 -12 -8 -12 -2 0 14 12 26 19 19 2 -3 -1 -11 -7
-17z m-49 -93 c-9 -19 -18 -33 -21 -31 -4 5 26 66 33 66 3 0 -3 -16 -12 -35z"/>
<path d="M4825 10262 c-11 -2 -31 -11 -44 -21 l-24 -18 57 -2 c37 0 56 3 56
11 0 7 5 5 13 -4 6 -9 23 -18 37 -20 21 -3 24 1 26 29 l2 33 -52 -3 c-28 -1
-60 -3 -71 -5z"/>
<path d="M2642 10223 c-5 -15 -17 -45 -26 -65 -9 -21 -12 -38 -7 -38 9 0 54
120 47 127 -2 2 -8 -9 -14 -24z"/>
<path d="M3274 9915 c6 -299 14 -405 29 -405 5 0 7 9 4 20 -3 11 -1 20 4 20 5
0 9 5 9 11 0 5 -4 8 -9 5 -13 -9 -22 128 -25 381 -1 122 -6 226 -10 230 -5 5
-6 -113 -2 -262z"/>
<path d="M4625 10101 c3 -5 -8 -9 -24 -9 -27 1 -168 -58 -160 -67 7 -6 228 69
229 78 0 4 -12 7 -26 7 -14 0 -23 -4 -19 -9z"/>
<path d="M4302 10050 c13 -17 40 -34 63 -41 50 -14 150 -14 189 1 44 16 22 24
-28 10 -29 -8 -66 -10 -103 -5 -65 8 -92 19 -111 47 -7 10 -18 18 -23 18 -6 0
0 -13 13 -30z"/>
<path d="M4340 9979 c0 -18 77 -69 103 -69 10 0 16 -4 13 -9 -3 -5 -8 -24 -11
-43 -14 -90 -17 -93 -74 -96 -32 -2 -59 2 -68 10 -22 18 -66 22 -61 6 3 -7 14
-18 25 -23 12 -6 28 -16 36 -23 28 -24 196 -15 181 9 -3 6 -13 7 -23 4 -9 -4
-34 -9 -56 -11 -36 -4 -38 -3 -15 7 14 6 34 15 46 19 21 8 70 88 60 98 -3 3
-8 -3 -12 -12 -3 -9 -10 -16 -15 -16 -4 0 -2 15 5 33 15 36 11 57 -10 57 -21
0 -74 28 -101 53 -17 15 -23 17 -23 6z"/>
<path d="M5480 9981 c0 -9 62 -37 95 -44 11 -3 3 -5 -18 -6 -23 -1 -36 -5 -32
-11 3 -5 18 -10 33 -9 39 0 145 42 150 58 4 11 0 12 -14 6 -11 -4 -40 -13 -67
-18 -40 -10 -54 -8 -97 10 -28 12 -50 18 -50 14z"/>
<path d="M4175 9913 c-33 -13 -71 -29 -84 -34 -13 -5 -21 -12 -18 -15 3 -3 27
4 53 15 26 12 65 24 86 27 41 7 56 19 35 27 -7 3 -40 -6 -72 -20z"/>
<path d="M3875 9833 c-11 -3 -31 -10 -45 -16 -28 -11 -36 -14 -67 -21 -12 -2
-30 -9 -40 -14 -10 -6 -20 -10 -23 -10 -3 0 -18 -5 -33 -11 -16 -6 -34 -11
-41 -11 -6 0 -16 -4 -21 -9 -8 -6 -180 -68 -215 -76 -38 -10 -60 -19 -60 -25
0 -10 62 6 117 31 23 10 50 20 60 22 10 1 23 5 28 9 6 3 30 12 55 19 25 7 47
13 50 14 3 1 19 7 35 14 17 7 59 22 95 33 36 11 72 23 80 26 23 8 28 9 50 11
11 0 20 6 20 11 0 10 -11 11 -45 3z"/>
<path d="M4940 9794 c-30 -24 -60 -42 -66 -40 -6 3 -15 1 -20 -4 -15 -14 -111
-22 -149 -11 -27 7 -35 6 -35 -4 0 -14 57 -38 70 -30 5 3 11 1 15 -4 3 -6 13
-8 23 -5 13 5 14 4 3 -4 -8 -6 -12 -19 -8 -31 3 -12 1 -23 -4 -26 -5 -4 -7
-16 -5 -28 3 -12 5 -25 5 -29 1 -5 5 -8 10 -8 5 0 8 14 7 31 -2 23 4 35 21 46
24 16 33 40 11 27 -7 -4 0 7 17 25 20 21 36 30 48 27 13 -3 21 1 24 13 2 10
16 25 31 33 31 19 80 68 66 67 -5 0 -34 -20 -64 -45z"/>
<path d="M5038 9717 c-4 -54 -3 -65 8 -54 12 11 16 94 6 101 -6 4 -12 -15 -14
-47z"/>
<path d="M4200 9716 c0 -2 8 -10 18 -17 15 -13 16 -12 3 4 -13 16 -21 21 -21
13z"/>
<path d="M4905 9712 c-86 -13 -87 -27 -2 -27 60 0 62 -1 65 -27 3 -26 34 -48
40 -29 2 6 8 9 13 6 5 -4 6 1 3 10 -5 11 -10 13 -19 5 -9 -7 -12 -2 -13 21 0
17 -3 34 -7 37 -7 7 -49 9 -80 4z"/>
<path d="M2137 9645 c-15 -30 -23 -55 -19 -55 7 0 54 101 49 106 -2 2 -15 -21
-30 -51z"/>
<path d="M5395 9670 c3 -5 8 -10 11 -10 2 0 4 5 4 10 0 6 -5 10 -11 10 -5 0
-7 -4 -4 -10z"/>
<path d="M4870 9654 c-24 -14 -24 -15 20 -9 l45 6 -24 -21 c-13 -11 -34 -20
-47 -20 -24 0 -41 -16 -29 -28 3 -3 10 -1 14 6 5 8 23 12 47 10 39 -3 39 -3
39 32 0 41 -24 50 -65 24z"/>
<path d="M5301 9641 c-8 -15 -8 -22 1 -27 7 -4 10 -4 6 1 -4 4 -3 14 4 22 6 7
8 16 5 19 -3 3 -10 -3 -16 -15z"/>
<path d="M5411 9570 c1 -82 16 -83 18 -2 l1 32 51 -40 c29 -22 54 -38 57 -35
3 3 3 6 1 8 -3 1 -33 29 -67 62 l-62 59 1 -84z"/>
<path d="M3230 9629 c0 -4 -19 -12 -42 -17 -24 -6 -88 -27 -143 -47 -55 -21
-117 -44 -138 -51 -57 -21 -155 -72 -162 -85 -5 -8 -2 -8 11 -2 75 38 186 85
304 127 65 24 89 33 110 41 3 1 20 6 37 10 36 8 63 32 38 32 -8 0 -15 -4 -15
-8z"/>
<path d="M5273 9592 c-8 -5 -9 -24 -4 -62 9 -65 24 -47 19 23 -2 33 -7 44 -15
39z"/>
<path d="M2037 9428 c-20 -68 -41 -150 -47 -183 -6 -33 -16 -73 -21 -90 -18
-61 -39 -162 -38 -186 0 -13 11 22 24 79 13 56 26 106 30 111 3 5 12 47 20 94
8 46 24 113 35 148 12 35 28 83 35 107 8 23 11 42 6 42 -4 0 -24 -55 -44 -122z"/>
<path d="M2067 9430 c-16 -49 -27 -95 -25 -102 3 -7 19 31 36 83 35 105 36
109 25 109 -5 0 -21 -41 -36 -90z"/>
<path d="M2410 9379 c0 -6 -6 -9 -12 -6 -30 9 -127 -51 -128 -79 0 -10 119
-31 143 -26 11 3 8 -27 -7 -56 -34 -69 -54 -218 -36 -273 7 -22 17 -39 23 -39
5 0 6 8 1 18 -24 54 -6 229 30 287 18 28 26 68 18 82 -4 7 -32 11 -73 9 -50
-1 -65 2 -62 11 3 7 9 14 14 14 19 3 24 4 34 10 16 10 89 33 98 31 4 -1 7 5 7
13 0 9 -9 15 -25 15 -14 0 -25 -5 -25 -11z"/>
<path d="M4030 9340 c-8 -5 -10 -10 -5 -10 6 0 17 5 25 10 8 5 11 10 5 10 -5
0 -17 -5 -25 -10z"/>
<path d="M2600 9326 c0 -7 6 -16 14 -19 23 -9 196 -7 196 2 0 13 -57 19 -116
14 -29 -3 -60 -1 -72 6 -18 9 -22 9 -22 -3z"/>
<path d="M2898 9333 c7 -3 16 -2 19 1 4 3 -2 6 -13 5 -11 0 -14 -3 -6 -6z"/>
<path d="M3161 9324 c0 -11 3 -14 6 -6 3 7 2 16 -1 19 -3 4 -6 -2 -5 -13z"/>
<path d="M2878 9304 c2 -13 9 -27 15 -31 6 -3 7 -1 3 5 -9 15 6 16 21 1 8 -8
19 -7 39 3 29 15 138 13 130 -1 -3 -4 8 -5 25 -3 16 2 29 8 29 12 0 9 -14 11
-135 14 -49 1 -99 7 -111 14 -19 10 -21 9 -16 -14z"/>
<path d="M2593 9285 c0 -8 4 -12 9 -9 5 3 6 10 3 15 -9 13 -12 11 -12 -6z"/>
<path d="M3194 9293 c4 -7 2 -13 -3 -13 -6 0 -11 -4 -11 -10 0 -5 6 -9 13 -7
6 1 11 -3 10 -10 -2 -6 6 -14 15 -17 16 -5 17 -14 12 -55 -3 -27 -11 -56 -18
-63 -8 -11 -7 -16 6 -24 15 -9 18 -6 21 25 2 20 5 57 5 82 1 37 4 45 16 41 8
-3 12 -2 8 3 -4 4 -3 17 3 28 9 15 8 18 -3 11 -23 -15 -42 -13 -62 4 -11 9
-16 11 -12 5z"/>
<path d="M3550 9288 c0 -4 4 -8 9 -8 6 0 12 4 15 8 3 5 -1 9 -9 9 -8 0 -15 -4
-15 -9z"/>
<path d="M3885 9290 c-3 -6 1 -7 9 -4 18 7 21 14 7 14 -6 0 -13 -4 -16 -10z"/>
<path d="M2988 9273 c7 -3 16 -2 19 1 4 3 -2 6 -13 5 -11 0 -14 -3 -6 -6z"/>
<path d="M2259 9251 c-13 -10 -39 -26 -57 -35 -19 -10 -32 -20 -29 -23 3 -2
17 3 31 12 24 16 31 14 26 -10 -1 -5 -4 -41 -7 -78 -2 -37 -10 -88 -18 -112
-7 -25 -9 -47 -5 -50 15 -9 29 21 31 65 1 25 7 56 12 70 5 14 10 41 10 60 1
23 7 35 16 35 8 0 16 7 18 15 4 13 3 13 -6 0 -10 -13 -11 -13 -11 0 1 8 7 24
15 34 29 38 13 48 -26 17z"/>
<path d="M2386 9237 c3 -10 9 -15 12 -12 3 3 0 11 -7 18 -10 9 -11 8 -5 -6z"/>
<path d="M2315 9230 c4 -6 11 -8 16 -5 14 9 11 15 -7 15 -8 0 -12 -5 -9 -10z"/>
<path d="M4958 9218 c11 -42 48 -87 63 -77 8 5 9 9 4 9 -6 0 -19 20 -29 45
-20 46 -49 64 -38 23z"/>
<path d="M2490 9179 c0 -5 5 -7 10 -4 6 3 10 8 10 11 0 2 -4 4 -10 4 -5 0 -10
-5 -10 -11z"/>
<path d="M4707 9184 c-12 -12 -9 -18 33 -64 22 -24 43 -52 46 -62 3 -10 10
-18 15 -18 5 0 8 -3 7 -7 -4 -20 17 -43 38 -43 17 0 24 6 24 19 0 15 -5 18
-22 13 -14 -3 -19 -1 -14 6 3 6 0 17 -8 25 -8 8 -13 16 -11 18 2 2 -20 30 -49
62 -28 32 -55 55 -59 51z"/>
<path d="M2108 9173 c-10 -2 -18 -9 -18 -14 0 -6 8 -5 20 1 11 6 20 13 20 15
0 3 -1 4 -2 4 -2 -1 -11 -3 -20 -6z"/>
<path d="M3106 9165 c-9 -26 -7 -32 5 -12 6 10 9 21 6 23 -2 3 -7 -2 -11 -11z"/>
<path d="M1972 9073 c-6 -27 -13 -66 -16 -88 -5 -33 -4 -35 4 -15 17 45 38
150 30 150 -5 0 -13 -21 -18 -47z"/>
<path d="M2410 9110 c0 -5 5 -10 10 -10 6 0 10 5 10 10 0 6 -4 10 -10 10 -5 0
-10 -4 -10 -10z"/>
<path d="M4937 9058 c-62 -64 -55 -74 9 -14 27 25 52 46 57 46 4 0 7 5 7 10 0
21 -27 6 -73 -42z"/>
<path d="M1910 9084 c0 -8 5 -12 10 -9 6 4 8 11 5 16 -9 14 -15 11 -15 -7z"/>
<path d="M2482 9052 c-6 -5 -11 -19 -10 -33 0 -13 -2 -53 -6 -89 -5 -46 -4
-61 3 -50 6 8 11 37 11 63 0 27 5 57 11 68 13 26 8 51 -9 41z"/>
<path d="M1804 9034 c-18 -14 -18 -15 4 -4 12 6 22 13 22 15 0 8 -5 6 -26 -11z"/>
<path d="M3028 9023 c7 -3 16 -2 19 1 4 3 -2 6 -13 5 -11 0 -14 -3 -6 -6z"/>
<path d="M1707 8980 c-26 -16 -47 -32 -47 -34 0 -3 23 9 50 26 44 27 57 38 47
38 -2 0 -24 -13 -50 -30z"/>
<path d="M2400 8990 c8 -5 20 -10 25 -10 6 0 3 5 -5 10 -8 5 -19 10 -25 10 -5
0 -3 -5 5 -10z"/>
<path d="M1613 8920 c-36 -21 -40 -27 -20 -26 10 0 67 46 56 46 -2 0 -19 -9
-36 -20z"/>
<path d="M2176 8915 c-8 -31 2 -54 15 -34 11 18 11 59 0 59 -5 0 -12 -11 -15
-25z"/>
<path d="M1493 8839 c-24 -17 -43 -32 -43 -35 0 -3 20 9 45 26 25 17 45 33 45
35 0 7 -2 6 -47 -26z"/>
<path d="M1419 8783 c-13 -16 -12 -17 4 -4 9 7 17 15 17 17 0 8 -8 3 -21 -13z"/>
<path d="M8456 7711 c-4 -6 -18 -11 -31 -11 -23 0 -51 -31 -39 -43 3 -3 -3 -3
-14 0 -30 7 -62 -30 -62 -72 0 -28 -4 -35 -20 -35 -18 0 -26 -20 -21 -52 0 -5
-3 -8 -9 -8 -5 0 -10 5 -10 10 0 15 -30 12 -31 -2 -1 -7 0 -23 1 -35 2 -28
-10 -29 -40 -3 -27 24 -68 26 -76 5 -4 -8 6 -31 20 -49 14 -19 26 -39 26 -45
0 -6 7 -8 15 -5 21 8 19 -2 -6 -30 l-22 -25 -16 22 c-9 12 -23 34 -30 49 -12
24 -18 27 -45 21 -17 -3 -43 -6 -58 -6 -21 0 -28 -5 -28 -18 0 -26 -17 -24
-24 4 -6 26 -39 49 -59 41 -15 -5 -18 -56 -4 -70 18 -18 6 -34 -25 -32 -18 1
-51 -2 -73 -6 -34 -6 -38 -5 -24 6 9 8 22 31 27 51 10 35 9 37 -9 32 -11 -4
-33 -3 -50 0 -23 5 -30 12 -28 28 0 12 1 25 0 30 -2 13 -81 -33 -81 -48 0 -7
-9 -16 -19 -20 -20 -6 -34 -33 -29 -55 4 -18 -34 -29 -62 -17 -14 5 -35 9 -48
8 -21 -2 -22 0 -11 17 19 30 -6 86 -35 77 -12 -3 -36 -10 -55 -15 -18 -5 -38
-13 -43 -18 -16 -16 0 -59 24 -66 22 -7 22 -8 -7 -18 -16 -6 -37 -16 -45 -23
-8 -6 -24 -16 -35 -20 -11 -5 -22 -9 -25 -10 -3 -2 -15 -6 -28 -10 -14 -5 -21
-13 -18 -22 3 -7 -1 -16 -9 -19 -11 -5 -12 -11 -3 -30 10 -21 17 -24 44 -21
43 6 49 -1 24 -28 -12 -12 -20 -28 -18 -36 2 -8 -7 -13 -22 -13 -20 -1 -25 -6
-25 -28 -1 -16 -6 -33 -13 -40 -15 -15 -16 -38 0 -38 6 0 8 -3 5 -7 -4 -3 -16
2 -26 11 -30 27 -64 17 -76 -21 -5 -18 -14 -33 -20 -33 -5 0 -16 -9 -23 -20
-11 -18 -9 -22 13 -32 23 -10 29 -9 51 15 26 28 44 35 44 16 0 -15 26 -39 42
-39 8 0 19 5 26 12 6 6 15 9 19 5 4 -4 1 -13 -5 -19 -18 -18 -15 -28 8 -28 11
0 20 -7 20 -15 0 -8 -4 -15 -9 -15 -28 0 -14 -164 14 -166 28 -1 85 -48 94
-77 6 -19 9 -145 7 -319 -2 -158 -1 -298 1 -311 3 -13 18 -32 35 -41 16 -10
28 -20 26 -21 -2 -2 -78 -7 -168 -10 -91 -4 -169 -7 -175 -8 -5 -1 -9 6 -7 16
6 37 -17 82 -51 97 -17 7 -40 13 -49 12 -22 -2 -23 11 -2 29 14 12 16 27 10
104 -11 148 -16 185 -35 259 -10 39 -22 90 -26 113 -6 41 -5 42 22 48 56 11
76 20 81 35 4 12 2 13 -9 3 -23 -19 -96 -28 -114 -13 -17 14 -108 9 -195 -11
-30 -7 -59 -12 -63 -11 -5 2 -6 -2 -3 -7 7 -10 -38 -30 -76 -33 -16 -1 -28 -6
-28 -9 0 -4 -10 -9 -22 -11 -23 -3 -23 -3 4 -21 26 -18 27 -18 70 8 24 15 59
38 80 52 30 20 53 25 132 30 77 5 96 3 100 -8 9 -32 47 -261 57 -352 15 -126
8 -155 -44 -207 l-42 -43 23 -15 c13 -8 22 -25 22 -39 0 -21 -3 -23 -14 -14
-12 10 -20 9 -39 -3 -26 -18 -33 -13 -69 45 -33 52 -10 187 52 309 22 43 25
60 10 60 -22 0 -90 -183 -90 -244 0 -28 -5 -69 -10 -90 -7 -32 -5 -46 8 -68 9
-16 22 -26 28 -24 15 6 34 -13 34 -34 0 -10 -10 -15 -30 -15 -25 -1 -30 3 -30
22 0 13 -4 23 -10 23 -5 0 -10 -11 -10 -25 0 -22 -4 -25 -34 -25 -39 0 -62 22
-51 47 5 10 7 22 6 28 -10 39 -7 195 4 265 27 171 28 200 10 200 -9 0 -14 -4
-11 -8 6 -10 -19 -225 -32 -267 -5 -19 -11 -25 -16 -17 -4 7 -5 16 -1 21 3 5
-1 15 -8 23 -23 23 -37 55 -37 87 0 16 -4 33 -10 36 -19 12 -10 -52 15 -101
22 -43 25 -62 25 -151 0 -88 -2 -103 -16 -103 -10 0 -14 -6 -10 -15 3 -9 0
-15 -9 -15 -8 0 -15 5 -15 10 0 6 -7 10 -15 10 -8 0 -15 7 -15 15 0 23 -15 18
-30 -10 -9 -17 -16 -22 -21 -13 -6 9 -11 9 -22 0 -22 -18 -56 10 -41 35 13 20
55 26 66 9 5 -8 10 -8 19 1 7 7 24 9 40 6 18 -3 29 -1 29 6 0 6 -17 12 -37 13
-21 1 -47 2 -58 2 -30 2 -65 25 -65 42 0 9 -9 27 -20 41 -11 14 -20 41 -20 59
0 19 -4 34 -9 34 -5 0 -7 9 -4 20 3 11 0 26 -6 34 -15 17 -16 172 -2 241 11
53 22 141 24 188 1 15 4 27 8 27 4 0 9 10 11 21 2 17 25 30 101 62 53 22 97
44 97 48 0 5 -24 -1 -52 -12 -29 -12 -59 -22 -65 -22 -7 0 -13 -3 -13 -7 0
-10 -51 -32 -58 -25 -3 3 -1 22 4 42 11 43 13 43 147 46 90 1 116 8 84 20 -14
5 -160 0 -194 -7 -30 -6 -29 6 7 97 17 42 30 80 30 87 0 14 39 101 53 118 14
18 25 -8 26 -60 1 -21 6 -38 11 -38 6 0 10 24 9 60 -1 33 0 62 2 65 3 2 22 0
44 -5 22 -5 49 -9 60 -9 16 0 15 3 -8 15 -16 9 -35 13 -43 10 -8 -3 -14 1 -14
9 0 12 48 28 117 40 12 2 26 6 31 9 6 3 28 0 49 -8 35 -12 45 -12 89 3 49 18
84 31 95 37 3 2 1 -18 -5 -44 -6 -26 -12 -39 -14 -29 -3 13 -11 3 -28 -33 -29
-62 -25 -79 6 -23 13 23 18 28 14 13 -4 -14 -6 -43 -4 -65 9 -102 4 -184 -13
-203 -9 -10 -17 -26 -17 -35 0 -9 -9 -22 -20 -29 -11 -7 -20 -18 -20 -24 0
-18 -29 -25 -52 -13 -11 6 -48 9 -81 8 -34 -2 -67 -1 -72 3 -6 3 -28 9 -49 13
-29 6 -37 5 -31 -4 4 -7 17 -16 29 -21 21 -9 21 -9 -2 -9 -13 -1 -35 -7 -50
-15 -15 -7 -38 -12 -52 -9 -43 6 -57 -6 -26 -22 32 -17 56 -19 56 -6 0 25 186
61 246 48 30 -6 122 -5 182 3 2 0 0 5 -4 11 -3 6 -17 8 -29 5 -13 -3 -27 -2
-30 4 -3 5 -2 10 4 10 6 0 13 16 17 35 l6 35 72 2 71 2 -59 3 -58 4 6 62 c4
34 2 86 -3 114 -9 44 -7 63 9 115 29 93 27 108 -14 108 -18 0 -39 -7 -46 -15
-7 -8 -16 -12 -21 -9 -5 2 -19 -2 -32 -11 -13 -8 -26 -13 -28 -11 -7 8 -72 19
-104 19 -41 -1 -87 -12 -102 -25 -7 -6 -13 -7 -13 -2 0 4 -11 -2 -23 -15 -21
-19 -25 -20 -37 -6 -15 18 -30 11 -30 -14 0 -10 -9 -26 -21 -37 -12 -10 -28
-32 -36 -48 -21 -40 -83 -227 -83 -249 0 -11 -9 -21 -20 -24 -24 -6 -27 -23
-4 -23 11 0 14 -5 9 -17 -3 -10 -9 -31 -12 -48 -4 -16 -11 -33 -17 -37 -8 -6
-8 -8 0 -8 8 0 7 -13 -3 -42 -8 -24 -15 -59 -14 -78 0 -19 -7 -77 -15 -127
-16 -108 -17 -181 -4 -275 10 -67 36 -138 52 -138 13 0 9 -40 -4 -41 -7 0 -23
-2 -36 -3 -13 -2 -25 1 -27 5 -17 26 -85 -36 -85 -77 0 -24 -16 -29 -77 -25
-11 1 -24 -2 -27 -8 -4 -6 11 -8 41 -6 26 2 51 1 55 -2 5 -2 102 -6 214 -8
165 -3 210 -7 229 -19 33 -22 139 -18 169 5 35 27 396 72 396 49 0 -6 -14 -10
-32 -10 -20 0 -28 -4 -23 -9 6 -6 28 -6 55 0 65 13 744 3 771 -11 15 -9 24 -9
32 -1 6 6 43 11 82 11 40 0 76 5 83 12 8 8 15 8 25 0 8 -7 17 -8 21 -4 4 4 20
8 34 8 53 3 58 5 37 14 -16 7 -12 9 18 9 23 1 36 5 32 11 -3 6 -2 10 4 10 5 0
11 -5 13 -12 3 -7 37 -13 99 -14 52 -2 110 -4 131 -6 20 -2 34 1 31 6 -3 5 6
7 21 4 14 -3 26 -1 26 3 0 5 14 6 30 3 17 -4 30 -2 30 3 0 13 40 59 50 56 4
-1 8 10 9 25 1 15 3 46 4 70 2 23 0 48 -4 54 -4 7 -4 19 1 28 9 17 1 72 -10
65 -4 -2 -5 7 -2 22 3 18 1 24 -8 21 -8 -2 -16 -10 -18 -18 -3 -8 0 -10 9 -5
11 6 12 5 2 -5 -19 -20 -28 -4 -15 25 15 34 15 58 0 49 -8 -5 -9 -2 -4 11 7
18 6 18 -14 0 -15 -13 -20 -28 -17 -45 3 -14 1 -34 -3 -45 -7 -16 -9 -12 -9
18 -1 23 -5 36 -11 32 -5 -3 -10 -1 -10 4 0 6 5 11 11 11 6 0 9 7 6 15 -4 8
-2 17 3 20 6 4 10 0 10 -7 0 -10 3 -9 10 2 9 15 -16 54 -29 45 -4 -2 -6 16 -5
41 3 38 0 44 -17 44 -16 0 -18 2 -7 14 7 8 15 10 16 5 6 -16 20 -9 25 13 4 12
1 26 -6 31 -8 5 -5 7 8 5 20 -3 65 28 65 45 0 4 -8 1 -17 -9 -11 -11 -18 -13
-21 -5 -2 6 -12 11 -23 11 -22 0 -26 32 -6 47 20 17 47 11 47 -9 0 -21 10 -23
35 -5 19 15 13 38 -8 33 -7 -1 -9 -1 -4 1 4 3 7 11 7 19 0 9 -4 12 -10 9 -5
-3 -12 6 -16 20 -3 13 -10 22 -15 19 -5 -3 -9 0 -9 5 0 6 7 11 15 11 9 0 15
-9 15 -22 0 -15 3 -19 8 -11 5 8 12 2 21 -18 7 -16 17 -26 22 -23 6 3 5 12 -2
20 -10 12 -10 15 1 12 17 -4 44 45 28 51 -6 2 0 10 13 18 21 12 21 13 3 8 -26
-7 -56 4 -48 17 4 5 10 5 18 -1 23 -19 35 5 38 77 2 40 7 72 11 72 5 0 6 4 3
9 -6 10 22 99 37 119 6 7 10 43 9 80 -3 87 6 144 21 135 7 -4 6 0 -1 9 -8 9
-19 15 -26 12 -9 -4 -15 11 -19 53 -5 55 -30 123 -45 123 -4 0 -22 9 -39 20
-28 16 -31 23 -24 42 4 13 11 35 15 50 6 25 3 27 -31 33 -21 3 -46 10 -55 16
-36 19 -55 11 -62 -26 -4 -19 -10 -35 -14 -35 -18 0 -32 26 -32 57 0 39 -12
42 -30 8 -15 -29 -27 -23 -34 19 -3 17 0 34 9 43 11 10 12 20 5 32 -5 10 -6
22 -2 26 4 4 -4 2 -17 -5 -19 -10 -25 -10 -32 1 -6 10 -9 11 -9 2 0 -7 -4 -13
-10 -13 -5 0 -7 6 -4 14 8 20 -11 53 -20 37z m309 -191 c3 -5 2 -10 -4 -10 -5
0 -13 5 -16 10 -3 6 -2 10 4 10 5 0 13 -4 16 -10z m-1008 -146 c-3 -3 -12 -4
-19 -1 -8 3 -5 6 6 6 11 1 17 -2 13 -5z m144 -17 c-10 -9 -11 -8 -5 6 3 10 9
15 12 12 3 -3 0 -11 -7 -18z m-534 -69 c-3 -8 -6 -5 -6 6 -1 11 2 17 5 13 3
-3 4 -12 1 -19z m201 -23 c-3 -3 -9 2 -12 12 -6 14 -5 15 5 6 7 -7 10 -15 7
-18z m-171 -67 c-3 -8 -6 -5 -6 6 -1 11 2 17 5 13 3 -3 4 -12 1 -19z m-100
-20 c-3 -8 -6 -5 -6 6 -1 11 2 17 5 13 3 -3 4 -12 1 -19z m-43 3 c4 -5 -3 -7
-14 -4 -11 3 -27 0 -35 -7 -9 -8 -15 -8 -15 -2 0 19 54 30 64 13z m33 -74 c1
-29 1 -30 -8 -9 -5 13 -7 28 -3 33 8 14 9 12 11 -24z m-90 -144 c-4 -3 -1 -13
6 -22 11 -14 10 -14 -5 -2 -16 12 -16 31 -1 31 4 0 3 -3 0 -7z m-82 -23 c-3
-5 -12 -10 -18 -10 -7 0 -6 4 3 10 19 12 23 12 15 0z m130 0 c3 -5 1 -10 -4
-10 -6 0 -11 5 -11 10 0 6 2 10 4 10 3 0 8 -4 11 -10z m-81 -25 c3 -8 1 -15
-3 -15 -5 0 -11 7 -15 15 -3 8 -1 15 3 15 5 0 11 -7 15 -15z m86 -49 c0 -2 -8
-10 -17 -17 -16 -13 -17 -12 -4 4 13 16 21 21 21 13z m21 -29 c-10 -9 -11 -8
-5 6 3 10 9 15 12 12 3 -3 0 -11 -7 -18z m137 -32 c3 -3 -4 -5 -14 -5 -11 0
-26 -6 -33 -12 -11 -11 -13 -10 -8 5 4 9 2 17 -3 17 -12 0 -21 -16 -25 -48 -2
-15 -2 -21 1 -14 3 6 13 12 22 11 10 0 12 -3 5 -5 -7 -3 -10 -11 -7 -19 3 -7
0 -16 -7 -21 -7 -4 -10 -3 -6 3 4 6 -3 13 -14 16 -16 4 -19 11 -14 29 5 19 4
20 -5 6 -6 -10 -18 -15 -28 -12 -12 4 -11 0 6 -15 13 -11 22 -23 22 -26 -1 -3
0 -9 3 -13 2 -4 2 -1 1 6 -4 16 4 15 23 -3 8 -8 19 -13 24 -10 5 4 9 1 9 -5 0
-7 -6 -10 -13 -7 -8 3 -20 1 -28 -4 -23 -15 7 -27 88 -35 l73 -6 0 -37 c0 -39
-26 -72 -58 -70 -13 0 -14 2 -2 6 32 12 50 41 40 65 l-9 23 -7 -22 c-3 -13
-10 -23 -15 -23 -5 0 -6 7 -2 16 4 10 -1 17 -16 21 -11 3 -18 9 -15 14 3 5 -3
9 -12 9 -10 0 -15 -3 -11 -6 3 -4 0 -13 -8 -21 -11 -10 -12 -20 -4 -41 6 -15
10 -28 10 -29 -4 -14 1 -23 9 -18 5 3 17 2 26 -3 14 -8 12 -10 -10 -16 -16 -4
-26 -13 -26 -24 1 -16 1 -16 14 1 21 27 36 20 35 -15 -2 -32 -2 -32 -6 -5 -4
23 -7 26 -19 16 -8 -6 -14 -20 -14 -30 0 -27 -20 -34 -20 -7 -3 113 -7 137
-33 172 -17 21 -33 33 -42 30 -19 -8 -52 24 -60 59 -6 24 -4 27 16 27 13 0 20
-4 14 -8 -13 -9 -18 -39 -7 -46 10 -6 16 40 10 79 -2 12 3 20 12 20 25 2 50
16 50 30 0 10 12 12 41 10 23 -3 44 -7 47 -10z m252 5 c0 -5 -4 -10 -9 -10 -6
0 -13 5 -16 10 -3 6 1 10 9 10 9 0 16 -4 16 -10z m27 -4 c-4 -11 -1 -13 11 -9
14 5 13 2 -3 -14 -15 -15 -21 -17 -23 -6 -4 16 4 43 14 43 3 0 4 -7 1 -14z
m146 -16 c-9 -10 -20 -17 -24 -14 -10 6 23 42 33 37 4 -2 0 -12 -9 -23z m47
20 c0 -5 -2 -10 -4 -10 -3 0 -8 5 -11 10 -3 6 -1 10 4 10 6 0 11 -4 11 -10z
m55 -11 c10 -30 0 -33 -13 -4 -6 14 -7 25 -2 25 5 0 12 -9 15 -21z m885 11
c-13 -9 -13 -11 0 -19 8 -6 11 -13 7 -18 -5 -4 -12 -1 -17 7 -6 10 -7 2 -3
-22 3 -21 2 -38 -3 -38 -11 0 -11 71 0 88 4 7 13 12 19 12 7 0 6 -4 -3 -10z
m-1359 -9 c-8 -5 -20 -7 -28 -4 -21 8 -15 13 15 13 20 0 23 -3 13 -9z m58 -13
c0 -20 -1 -20 -7 -5 -7 16 -9 16 -27 3 -24 -18 -35 -20 -35 -6 0 6 7 10 15 10
8 0 15 5 15 10 0 6 9 10 20 10 14 0 20 -6 19 -22z m271 12 c0 -5 -5 -10 -11
-10 -5 0 -7 5 -4 10 3 6 8 10 11 10 2 0 4 -4 4 -10z m167 -22 c-3 -7 -5 -2 -5
12 0 14 2 19 5 13 2 -7 2 -19 0 -25z m568 3 c-3 -12 -10 -21 -15 -21 -4 0 -3
11 3 24 14 29 22 27 12 -3z m-921 4 c3 -8 1 -15 -4 -15 -6 0 -10 7 -10 15 0 8
2 15 4 15 2 0 6 -7 10 -15z m-174 -5 c0 -5 -2 -10 -4 -10 -3 0 -8 5 -11 10 -3
6 -1 10 4 10 6 0 11 -4 11 -10z m220 6 c0 -2 -7 -6 -15 -10 -8 -3 -15 -1 -15
4 0 6 7 10 15 10 8 0 15 -2 15 -4z m117 -16 c3 -10 2 -11 -4 -4 -4 6 -15 14
-23 17 -11 5 -9 6 4 4 11 -1 21 -9 23 -17z m513 10 c0 -5 -2 -10 -4 -10 -3 0
-8 5 -11 10 -3 6 -1 10 4 10 6 0 11 -4 11 -10z m398 -10 c-14 -22 -24 -19 -15
5 4 8 11 15 17 15 6 0 6 -7 -2 -20z m-620 -7 c-2 -10 2 -18 9 -18 6 0 15 -4
20 -9 5 -5 3 -6 -4 -2 -16 9 -17 -6 -1 -22 9 -9 9 -12 1 -12 -7 0 -15 9 -18
20 -4 11 -10 18 -15 15 -4 -3 -14 3 -21 12 -10 12 -10 15 -1 9 7 -4 15 -1 18
8 8 21 16 20 12 -1z m89 11 c-3 -3 -12 -4 -19 -1 -8 3 -5 6 6 6 11 1 17 -2 13
-5z m461 -34 c-5 -17 -14 -30 -19 -30 -4 0 -6 6 -3 14 4 10 -3 16 -18 19 -17
3 -16 4 5 2 20 -1 27 3 27 17 0 11 4 17 9 13 6 -3 6 -17 -1 -35z m-855 16 c4
-10 1 -13 -9 -9 -7 3 -14 0 -14 -7 0 -6 -4 -8 -10 -5 -6 4 -5 11 3 20 16 18
24 18 30 1z m1032 -15 c-6 -5 -25 10 -25 20 0 5 6 4 14 -3 8 -7 12 -15 11 -17z
m-1379 -29 c-3 -2 -13 3 -22 13 -14 14 -15 18 -3 25 10 7 16 3 22 -12 4 -11 5
-23 3 -26z m49 30 c-3 -3 -11 0 -18 7 -9 10 -8 11 6 5 10 -3 15 -9 12 -12z
m42 12 c-3 -3 -12 -4 -19 -1 -8 3 -5 6 6 6 11 1 17 -2 13 -5z m120 -9 c-4 -10
-35 -15 -51 -7 -12 7 15 21 36 19 10 -1 17 -6 15 -12z m334 -13 c-9 -3 -9 -8
1 -20 9 -12 6 -11 -10 2 -20 18 -21 20 -4 32 12 9 18 9 21 1 2 -6 -1 -13 -8
-15z m889 18 c0 -5 -4 -10 -10 -10 -5 0 -10 5 -10 10 0 6 5 10 10 10 6 0 10
-4 10 -10z m-1150 -10 c0 -5 -5 -10 -11 -10 -5 0 -7 5 -4 10 3 6 8 10 11 10 2
0 4 -4 4 -10z m535 0 c3 -6 -1 -7 -9 -4 -18 7 -21 14 -7 14 6 0 13 -4 16 -10z
m-666 -42 c1 30 16 28 17 -3 2 -20 -3 -24 -21 -23 -18 2 -22 8 -23 38 l0 35
13 -35 c11 -28 14 -30 14 -12z m282 23 c-7 -5 -12 -12 -11 -17 1 -5 -4 -10
-11 -13 -7 -2 -9 1 -4 10 16 27 28 39 34 34 3 -3 0 -10 -8 -14z m446 0 c1 -11
-5 -22 -13 -25 -10 -4 -13 -2 -7 7 4 6 8 15 9 20 5 24 9 23 11 -2z m379 -8
c-6 -6 -36 9 -36 18 0 5 9 4 20 -3 10 -7 18 -14 16 -15z m-1201 7 c16 -7 17
-9 3 -9 -9 -1 -19 -7 -21 -13 -3 -8 -6 -5 -6 5 -1 11 -6 15 -13 11 -7 -4 -8
-3 -4 4 8 14 13 14 41 2z m48 -36 c-3 -10 -22 -14 -59 -14 -45 0 -54 3 -54 18
0 14 2 15 10 2 8 -13 10 -13 10 0 0 11 3 11 12 2 14 -14 52 -16 43 -2 -3 6 -1
10 4 10 6 0 11 8 11 18 1 16 2 16 15 -1 7 -11 11 -25 8 -33z m142 36 c3 -5 1
-10 -4 -10 -6 0 -11 5 -11 10 0 6 2 10 4 10 3 0 8 -4 11 -10z m141 -7 c-3 -19
-16 -28 -16 -11 0 11 -8 14 -27 11 -18 -3 -24 -1 -16 4 19 14 61 11 59 -4z
m391 2 c0 -8 -4 -15 -9 -15 -10 0 -11 14 -1 23 9 10 10 9 10 -8z m67 7 c3 -5
-1 -9 -9 -9 -8 0 -12 4 -9 9 3 4 7 8 9 8 2 0 6 -4 9 -8z m-869 -23 c6 -19 0
-38 -9 -28 -10 12 -16 49 -7 49 5 0 13 -9 16 -21z m269 -6 c9 4 18 1 22 -5 5
-8 -4 -9 -30 -5 -25 4 -34 2 -30 -5 4 -6 1 -9 -6 -6 -8 2 -16 10 -18 18 -3 8
0 10 8 5 10 -6 12 -3 6 10 -7 18 -6 18 13 1 11 -10 27 -16 35 -13z m56 -3 c-8
-5 -16 -8 -17 -6 -2 2 -1 11 3 20 5 13 10 14 18 6 8 -8 7 -13 -4 -20z m310 7
c0 -7 -4 -6 -10 3 -8 12 -10 12 -10 1 0 -8 -3 -12 -6 -8 -9 9 6 28 17 22 5 -4
9 -12 9 -18z m30 13 c0 -5 -2 -10 -4 -10 -3 0 -8 5 -11 10 -3 6 -1 10 4 10 6
0 11 -4 11 -10z m105 0 c-3 -5 -12 -10 -18 -10 -7 0 -6 4 3 10 19 12 23 12 15
0z m620 -2 c3 -3 -1 -8 -9 -11 -8 -3 -17 0 -19 8 -5 13 16 15 28 3z m-895 -8
c0 -5 -2 -10 -4 -10 -3 0 -8 5 -11 10 -3 6 -1 10 4 10 6 0 11 -4 11 -10z m460
0 c8 -5 11 -10 5 -10 -5 0 -17 5 -25 10 -8 5 -10 10 -5 10 6 0 17 -5 25 -10z
m474 -42 c7 -29 0 -36 -9 -9 -3 12 -13 21 -21 21 -8 0 -12 -4 -9 -10 8 -13 2
-13 -29 4 -26 13 -26 13 18 14 37 1 45 -2 50 -20z m-1091 -16 c-13 -2 -23 -11
-23 -20 0 -12 -3 -13 -12 -4 -17 17 -28 15 -28 -4 0 -8 5 -12 10 -9 6 3 10 1
10 -4 0 -6 -4 -11 -10 -11 -5 0 -10 -8 -10 -17 0 -15 -2 -15 -9 -4 -5 8 -7 20
-4 28 3 7 -1 13 -8 13 -10 1 -8 5 4 14 16 13 15 14 -17 13 -22 -1 -36 -6 -36
-14 0 -7 7 -10 18 -7 12 4 13 3 4 -3 -7 -5 -10 -17 -6 -26 3 -10 1 -17 -5 -17
-6 0 -10 6 -8 13 1 7 -8 12 -25 11 -19 -1 -25 3 -21 13 5 12 7 12 14 1 6 -9 9
-6 9 10 0 13 -4 20 -10 17 -5 -3 -10 -2 -10 4 0 7 36 10 98 9 53 -1 87 -4 75
-6z m67 4 c0 -9 -30 -14 -35 -6 -4 6 3 10 14 10 12 0 21 -2 21 -4z m70 -6 c0
-5 -2 -10 -4 -10 -3 0 -8 5 -11 10 -3 6 -1 10 4 10 6 0 11 -4 11 -10z m54 -1
c4 6 12 11 18 11 6 0 5 -6 -3 -16 -7 -8 -21 -13 -32 -10 -13 3 -17 0 -13 -10
3 -8 2 -13 -3 -9 -13 7 -42 -5 -35 -16 3 -5 0 -9 -5 -9 -13 0 -13 3 -5 24 3 9
10 14 14 11 4 -2 15 4 25 15 13 14 21 17 26 9 5 -8 8 -8 13 0z m293 5 c-3 -3
-12 -4 -19 -1 -8 3 -5 6 6 6 11 1 17 -2 13 -5z m46 -1 c-7 -2 -19 -2 -25 0 -7
3 -2 5 12 5 14 0 19 -2 13 -5z m84 1 c-3 -3 -12 -4 -19 -1 -8 3 -5 6 6 6 11 1
17 -2 13 -5z m116 -1 c-7 -2 -19 -2 -25 0 -7 3 -2 5 12 5 14 0 19 -2 13 -5z
m-935 -33 c-12 -16 -23 -30 -25 -30 -2 0 -3 14 -3 30 0 25 4 30 25 30 l26 0
-23 -30z m512 20 c0 -5 -4 -10 -10 -10 -5 0 -10 5 -10 10 0 6 5 10 10 10 6 0
10 -4 10 -10z m-290 -10 c0 -5 -5 -10 -11 -10 -5 0 -7 5 -4 10 3 6 8 10 11 10
2 0 4 -4 4 -10z m80 -4 c0 -7 -7 -19 -15 -26 -16 -13 -20 -3 -9 24 8 20 24 21
24 2z m315 4 c3 -5 1 -10 -4 -10 -6 0 -11 5 -11 10 0 6 2 10 4 10 3 0 8 -4 11
-10z m108 3 c-7 -2 -21 -2 -30 0 -10 3 -4 5 12 5 17 0 24 -2 18 -5z m71 1 c9
-3 14 -10 11 -15 -7 -10 -35 0 -35 12 0 11 3 11 24 3z m-144 -25 c0 -6 -4 -7
-10 -4 -5 3 -10 11 -10 16 0 6 5 7 10 4 6 -3 10 -11 10 -16z m560 11 c0 -5 -7
-10 -16 -10 -8 0 -12 5 -9 10 3 6 10 10 16 10 5 0 9 -4 9 -10z m-1320 -25 c0
-7 8 -16 18 -20 14 -6 12 -9 -12 -16 -36 -10 -44 -4 -28 21 10 17 10 20 -3 20
-8 0 -15 4 -15 9 0 5 9 7 20 4 11 -3 20 -11 20 -18z m680 -7 c0 -19 -16 -5
-17 14 -2 18 0 20 7 8 5 -8 10 -18 10 -22z m110 24 c0 -5 -7 -17 -15 -28 -14
-18 -14 -17 -4 9 12 27 19 34 19 19z m400 4 c0 -3 -4 -8 -10 -11 -5 -3 -10 -1
-10 4 0 6 5 11 10 11 6 0 10 -2 10 -4z m-893 -38 c-3 -8 -6 -5 -6 6 -1 11 2
17 5 13 3 -3 4 -12 1 -19z m418 -6 c-8 -8 -25 10 -19 20 4 6 9 5 15 -3 4 -7 6
-15 4 -17z m181 13 c-3 -23 -12 -26 -13 -5 -1 11 2 20 7 20 4 0 7 -7 6 -15z
m434 3 c0 -4 -9 -8 -21 -8 -11 0 -18 4 -15 8 3 5 12 9 21 9 8 0 15 -4 15 -9z
m-1164 -18 c-1 -8 7 -14 17 -14 9 1 17 -2 17 -7 0 -5 -9 -9 -19 -9 -11 0 -23
-4 -26 -10 -4 -6 1 -7 12 -4 14 5 15 4 4 -4 -8 -6 -22 -7 -30 -3 -9 5 -22 7
-29 5 -7 -1 -8 0 -3 2 6 3 8 11 5 19 -3 7 0 16 6 20 9 6 9 9 0 15 -7 5 0 7 17
7 20 -1 30 -7 29 -17z m349 2 c-3 -3 -11 0 -18 7 -9 10 -8 11 6 5 10 -3 15 -9
12 -12z m745 3 c0 -8 -4 -15 -10 -15 -5 0 -7 7 -4 15 4 8 8 15 10 15 2 0 4 -7
4 -15z m-1162 -20 c-3 -3 -9 2 -12 12 -6 14 -5 15 5 6 7 -7 10 -15 7 -18z
m132 15 c0 -5 -5 -10 -11 -10 -5 0 -7 5 -4 10 3 6 8 10 11 10 2 0 4 -4 4 -10z
m216 -2 c-9 -5 -23 -5 -32 0 -12 6 -7 9 16 9 23 0 28 -3 16 -9z m126 -3 c3 0
10 -4 15 -9 5 -6 2 -6 -6 -1 -11 6 -13 4 -8 -8 3 -10 2 -17 -3 -17 -6 0 -10 7
-10 16 0 10 -6 14 -14 11 -10 -4 -13 -1 -9 8 3 8 10 12 17 8 6 -4 14 -8 18 -8z
m598 11 c0 -3 -4 -8 -10 -11 -5 -3 -10 -1 -10 4 0 6 5 11 10 11 6 0 10 -2 10
-4z m-525 -27 c-10 -15 -25 -10 -19 6 4 8 10 12 15 9 5 -3 7 -10 4 -15z m222
1 c10 -13 8 -16 -6 -16 -13 0 -17 6 -13 19 2 10 5 16 6 15 1 -2 7 -10 13 -18z
m159 1 c0 -12 -6 -17 -18 -13 -18 4 -18 5 -1 18 10 7 18 14 18 14 1 0 1 -8 1
-19z m-736 -1 c11 -8 8 -9 -11 -4 -27 6 -48 -9 -29 -21 11 -7 4 -25 -10 -25
-5 0 -7 7 -4 15 4 9 1 15 -7 15 -8 0 -5 6 7 15 23 17 34 18 54 5z m527 4 c-3
-3 -12 -4 -19 -1 -8 3 -5 6 6 6 11 1 17 -2 13 -5z m-397 -14 c0 -5 -4 -10 -10
-10 -5 0 -10 5 -10 10 0 6 5 10 10 10 6 0 10 -4 10 -10z m360 1 c0 -5 8 -12
18 -14 13 -4 14 -5 1 -6 -8 0 -24 6 -35 14 -17 13 -17 14 -1 15 9 0 17 -4 17
-9z m190 -1 c0 -5 -12 -10 -27 -9 l-28 1 25 8 c14 4 26 8 28 9 1 1 2 -3 2 -9z
m235 0 c-3 -5 -12 -10 -19 -10 -8 0 -19 -7 -26 -15 -7 -8 -17 -15 -22 -15 -12
0 23 36 42 43 24 9 32 8 25 -3z m-880 -10 c-3 -5 -12 -10 -18 -10 -7 0 -6 4 3
10 19 12 23 12 15 0z m205 6 c0 -3 -4 -8 -10 -11 -5 -3 -10 -1 -10 4 0 6 5 11
10 11 6 0 10 -2 10 -4z m-170 -16 c0 -5 -2 -10 -4 -10 -3 0 -8 5 -11 10 -3 6
-1 10 4 10 6 0 11 -4 11 -10z m-275 -10 c3 -5 -1 -10 -10 -10 -9 0 -13 5 -10
10 3 6 8 10 10 10 2 0 7 -4 10 -10z m129 1 c3 -4 -3 -18 -13 -30 l-20 -22 -12
23 c-11 20 -10 21 3 10 12 -10 17 -10 27 1 6 8 8 17 4 20 -3 4 -4 7 0 7 3 0 8
-4 11 -9z m196 -11 c6 -11 8 -20 6 -20 -3 0 -10 9 -16 20 -6 11 -8 20 -6 20 3
0 10 -9 16 -20z m30 10 c0 -5 -2 -10 -4 -10 -3 0 -8 5 -11 10 -3 6 -1 10 4 10
6 0 11 -4 11 -10z m148 -4 c3 -3 -6 -6 -21 -6 -14 0 -28 4 -31 9 -6 9 42 6 52
-3z m146 -2 c3 -8 2 -12 -4 -9 -6 3 -10 10 -10 16 0 14 7 11 14 -7z m275 2 c7
-8 8 -17 3 -20 -6 -3 -12 3 -15 14 -6 24 -4 25 12 6z m-879 -37 c0 -8 6 -24
14 -34 12 -16 16 -17 30 -6 11 10 16 10 16 2 0 -7 5 -9 10 -6 6 3 10 1 10 -5
0 -6 -6 -10 -14 -8 -8 2 -21 -5 -28 -15 -21 -28 -49 -12 -41 24 4 19 1 29 -6
29 -8 0 -10 8 -6 21 5 14 4 19 -4 15 -7 -5 -8 -1 -4 9 5 13 7 14 14 3 5 -7 9
-20 9 -29z m354 21 c-6 -6 -15 -5 -24 1 -13 9 -12 10 3 5 9 -3 17 0 17 6 0 6
3 8 7 5 4 -4 2 -12 -3 -17z m180 5 c-4 -8 -8 -15 -10 -15 -2 0 -4 7 -4 15 0 8
4 15 10 15 5 0 7 -7 4 -15z m406 0 c7 -9 8 -15 2 -15 -5 0 -12 7 -16 15 -3 8
-4 15 -2 15 2 0 9 -7 16 -15z m190 11 c0 -2 -7 -9 -15 -16 -13 -11 -14 -10 -9
4 5 14 24 23 24 12z m-930 -16 c0 -5 -2 -10 -4 -10 -3 0 -8 5 -11 10 -3 6 -1
10 4 10 6 0 11 -4 11 -10z m286 -2 c4 -7 4 -10 -1 -6 -4 4 -25 -11 -47 -33
-22 -22 -42 -38 -45 -35 -3 3 5 14 18 25 13 11 21 23 17 27 -5 4 -16 0 -27
-10 -17 -15 -19 -15 -25 -1 -3 10 -2 14 5 10 5 -4 16 -2 23 4 7 6 20 9 28 6 8
-3 21 1 28 10 15 18 17 18 26 3z m-376 -7 c0 -5 -7 -12 -16 -15 -14 -5 -15 -4
-4 9 14 17 20 19 20 6z m60 -11 c-8 -5 -22 -9 -30 -9 -10 0 -8 3 5 9 27 12 43
12 25 0z m-220 -26 c0 -9 -11 -14 -30 -14 -16 0 -30 4 -30 8 0 5 10 8 23 8 13
-1 21 4 19 12 -1 8 2 11 8 7 5 -3 10 -13 10 -21z m-87 -4 c3 -11 1 -20 -4 -20
-5 0 -9 9 -9 20 0 11 2 20 4 20 2 0 6 -9 9 -20z m402 2 c-3 -3 -11 0 -18 7 -9
10 -8 11 6 5 10 -3 15 -9 12 -12z m-140 -2 c3 -5 1 -10 -4 -10 -6 0 -11 5 -11
10 0 6 2 10 4 10 3 0 8 -4 11 -10z m645 0 c0 -5 -5 -10 -11 -10 -5 0 -7 5 -4
10 3 6 8 10 11 10 2 0 4 -4 4 -10z m175 -19 c-6 -5 -25 10 -25 20 0 5 6 4 14
-3 8 -7 12 -15 11 -17z m-641 3 c9 -24 2 -26 -12 -4 -7 11 -8 20 -3 20 5 0 12
-7 15 -16z m32 -10 c-4 -9 -9 -15 -11 -12 -3 3 -3 13 1 22 4 9 9 15 11 12 3
-3 3 -13 -1 -22z m699 -17 c-5 -25 -11 -34 -21 -30 -11 4 -11 7 1 20 8 8 15
24 15 35 0 12 3 19 6 16 3 -3 2 -22 -1 -41z m-795 18 c0 -8 -2 -15 -4 -15 -2
0 -6 7 -10 15 -3 8 -1 15 4 15 6 0 10 -7 10 -15z m-406 -33 c-4 -12 -10 -22
-14 -22 -7 0 -7 17 -1 60 1 2 5 0 11 -6 5 -5 7 -19 4 -32z m92 1 c4 4 2 7 -4
7 -7 0 -12 7 -12 15 0 16 16 21 22 6 2 -4 21 -18 43 -29 26 -14 32 -21 18 -19
-12 2 -26 6 -29 10 -13 12 -26 7 -21 -7 3 -8 -1 -20 -8 -26 -15 -13 -10 -35 5
-25 5 3 7 -14 5 -37 -2 -23 -8 -44 -13 -46 -7 -2 -9 12 -7 38 4 34 2 41 -10
36 -17 -6 -21 9 -5 19 6 4 8 11 5 16 -4 5 1 9 11 9 13 0 11 4 -7 19 -28 23
-39 19 -39 -14 0 -13 -4 -26 -9 -29 -15 -10 -19 -55 -5 -67 7 -6 10 -17 7 -25
-8 -21 -22 -17 -18 6 2 11 0 20 -4 20 -5 0 -11 -11 -13 -25 -4 -20 -1 -25 16
-26 20 0 20 -1 -1 -9 -13 -5 -23 -16 -23 -25 0 -19 29 -20 36 -1 7 19 36 30
44 17 3 -6 16 -8 28 -4 12 3 19 10 16 15 -3 5 -13 7 -23 3 -12 -5 -13 -3 -4 6
8 8 19 7 42 -7 33 -19 38 -29 21 -39 -6 -4 -9 -1 -8 7 2 7 -3 13 -9 12 -7 -1
-20 -2 -28 -2 -8 -1 -15 -10 -15 -19 0 -14 -3 -13 -16 6 l-16 23 -29 -28 c-22
-21 -27 -33 -22 -55 6 -29 -2 -35 -24 -21 -10 6 -9 14 2 35 8 16 10 27 3 27
-10 0 -5 81 8 114 5 12 2 15 -10 10 -9 -3 -16 -1 -16 6 0 6 5 8 10 5 7 -4 9 2
4 19 -6 26 14 86 29 86 11 0 -2 -43 -15 -51 -13 -9 9 -22 22 -14 6 3 10 19 10
35 0 16 5 32 10 35 6 4 8 12 4 18 -3 7 3 1 14 -13 12 -14 24 -21 28 -17z m54
27 c0 -5 -5 -10 -11 -10 -5 0 -7 5 -4 10 3 6 8 10 11 10 2 0 4 -4 4 -10z m130
-11 c0 -6 -4 -7 -10 -4 -5 3 -10 11 -10 16 0 6 5 7 10 4 6 -3 10 -11 10 -16z
m53 -17 c-4 -16 -13 -22 -35 -22 -18 0 -27 4 -22 11 3 6 14 9 24 6 12 -3 20 2
24 16 3 12 7 19 10 16 3 -3 3 -15 -1 -27z m41 13 c3 -8 1 -15 -3 -15 -5 0 -11
7 -15 15 -3 8 -1 15 3 15 5 0 11 -7 15 -15z m131 -1 c33 8 32 0 -5 -31 -16
-13 -30 -32 -30 -41 0 -10 -7 -26 -15 -36 -13 -17 -17 -17 -32 -5 -10 8 -21
18 -24 23 -8 10 -29 -1 -29 -14 0 -5 7 -7 15 -4 9 4 15 0 15 -10 0 -23 40 -42
51 -25 5 8 9 9 9 3 0 -6 -6 -17 -14 -23 -11 -9 -15 -9 -19 1 -2 7 -7 10 -11 7
-3 -3 1 -14 9 -25 14 -18 16 -18 26 -1 11 19 39 23 39 6 0 -6 -7 -9 -14 -6
-17 7 -31 -25 -21 -45 4 -7 0 -5 -8 5 -13 16 -19 17 -39 6 -20 -11 -20 -14 -5
-17 17 -4 24 -22 8 -22 -21 0 -29 25 -15 44 8 11 14 27 14 35 0 14 -2 14 -11
1 -8 -12 -9 -10 -4 7 3 12 1 24 -5 28 -5 3 -10 -1 -10 -9 0 -9 -5 -16 -11 -16
-6 0 -8 9 -3 22 6 20 5 21 -9 9 -9 -7 -15 -17 -12 -21 3 -5 1 -10 -4 -12 -5
-1 -11 -16 -13 -33 -2 -24 1 -30 15 -29 23 2 22 -3 -4 -17 -13 -7 -19 -7 -15
-1 3 6 2 13 -4 17 -5 3 -7 19 -3 36 5 24 3 28 -11 23 -9 -4 -16 -1 -16 6 0 7
8 10 19 7 14 -3 18 -1 14 9 -3 8 -8 12 -13 9 -4 -2 -15 2 -25 9 -14 10 -16 20
-11 49 8 45 23 49 23 7 0 -16 -4 -30 -9 -30 -4 0 -8 -4 -8 -10 0 -17 14 -10
34 17 11 14 14 23 8 19 -7 -4 -12 -2 -12 4 0 7 13 10 32 8 24 -2 33 1 36 15 2
9 -1 17 -7 17 -6 0 -7 -8 -4 -17 6 -16 5 -16 -10 -4 -9 7 -17 17 -17 22 0 13
34 11 48 -3 6 -6 15 -8 19 -4 4 4 1 11 -6 15 -10 7 -8 11 10 17 13 4 27 7 32
6 4 -1 7 3 7 9 0 8 5 8 15 -1 8 -7 25 -10 40 -6z m572 8 c7 -4 9 -13 5 -19 -5
-8 -13 -9 -22 -3 -13 9 -13 10 0 10 13 0 13 1 0 10 -8 5 -10 10 -5 10 6 0 15
-4 22 -8z m201 -13 c11 0 12 -2 4 -6 -6 -2 -10 -10 -6 -16 3 -7 -2 -3 -10 7
-9 11 -16 25 -15 30 0 6 3 5 6 -1 2 -7 12 -13 21 -14z m-649 -26 c-1 -37 -1
-37 -8 -8 -7 28 -5 45 5 45 2 0 3 -17 3 -37z m51 33 c0 -2 -7 -7 -16 -10 -8
-3 -12 -2 -9 4 6 10 25 14 25 6z m-436 -15 c3 -5 0 -13 -7 -19 -10 -8 -13 -6
-13 9 0 20 11 25 20 10z m756 5 c0 -2 -7 -7 -16 -10 -8 -3 -12 -2 -9 4 6 10
25 14 25 6z m40 -16 c0 -5 -2 -10 -4 -10 -3 0 -8 5 -11 10 -3 6 -1 10 4 10 6
0 11 -4 11 -10z m-840 -15 c-13 -15 -5 -20 26 -16 6 1 11 -6 11 -14 0 -8 -4
-15 -8 -15 -4 0 -10 -12 -12 -27 -3 -22 -4 -20 -6 10 0 21 -5 36 -10 33 -14
-9 -21 20 -8 33 16 16 21 13 7 -4z m773 -2 c-7 -2 -19 -2 -25 0 -7 3 -2 5 12
5 14 0 19 -2 13 -5z m102 -3 c3 -5 1 -10 -4 -10 -6 0 -11 5 -11 10 0 6 2 10 4
10 3 0 8 -4 11 -10z m116 -12 c11 -21 11 -22 -4 -9 -10 7 -17 17 -17 22 0 15
9 10 21 -13z m-1022 -38 l-1 -25 -8 25 c-4 14 -8 32 -9 40 -1 13 0 13 9 0 5
-8 9 -26 9 -40z m349 32 c6 -18 -15 -14 -22 4 -4 10 -1 14 6 12 6 -2 14 -10
16 -16z m66 3 c-4 -8 -1 -15 5 -15 6 0 11 -4 11 -10 0 -5 -4 -10 -9 -10 -12 0
-23 29 -15 41 9 14 14 10 8 -6z m683 0 c0 -8 -4 -12 -9 -9 -5 3 -6 10 -3 15 9
13 12 11 12 -6z m-1004 -25 c-3 -11 -9 -20 -14 -20 -11 0 -11 3 -3 24 9 23 23
20 17 -4z m504 4 c-3 -3 -12 -4 -19 -1 -8 3 -5 6 6 6 11 1 17 -2 13 -5z m237
-2 c2 -4 -4 -9 -15 -9 -10 -1 -19 2 -19 8 0 11 27 12 34 1z m-941 -34 c-8 -14
-19 -8 -20 12 -1 16 1 17 12 7 7 -6 11 -15 8 -19z m103 -35 c15 -16 17 -12 14
30 -1 15 3 27 9 27 7 0 9 -10 5 -25 -5 -19 -2 -25 11 -25 9 0 13 -4 10 -10 -3
-5 0 -10 7 -10 10 0 10 -2 -1 -9 -9 -6 -10 -10 -2 -14 7 -3 7 -4 -1 -2 -7 1
-12 8 -10 14 1 6 -5 11 -13 11 -8 0 -15 -8 -16 -17 0 -13 -3 -11 -11 7 -6 15
-12 20 -15 13 -9 -25 -23 -12 -23 20 0 40 14 59 18 26 2 -12 10 -29 18 -36z
m346 21 c5 -8 2 -14 -9 -18 -10 -4 -14 -4 -11 0 4 4 3 14 -2 24 -5 10 -6 20
-2 24 3 4 8 1 11 -6 2 -7 8 -18 13 -24z m18 26 c0 -5 -2 -10 -4 -10 -3 0 -8 5
-11 10 -3 6 -1 10 4 10 6 0 11 -4 11 -10z m753 -5 c-3 -9 -8 -14 -10 -11 -3 3
-2 9 2 15 9 16 15 13 8 -4z m-243 -5 c0 -5 -4 -10 -10 -10 -5 0 -10 5 -10 10
0 6 5 10 10 10 6 0 10 -4 10 -10z m60 -5 c-7 -8 -18 -15 -24 -15 -6 0 -2 7 8
15 25 19 32 19 16 0z m73 -6 c-6 -6 -9 -18 -6 -25 3 -8 0 -14 -5 -14 -6 0 -9
9 -7 20 5 26 16 43 23 35 3 -3 1 -10 -5 -16z m64 -11 c-3 -8 -6 -5 -6 6 -1 11
2 17 5 13 3 -3 4 -12 1 -19z m-967 -4 c0 -2 -9 -4 -21 -4 -11 0 -18 4 -14 10
5 8 35 3 35 -6z m410 -20 c0 -2 -9 0 -20 6 -11 6 -20 13 -20 16 0 2 9 0 20 -6
11 -6 20 -13 20 -16z m328 10 c-10 -10 -21 -13 -29 -8 -12 7 0 14 41 23 2 1
-3 -6 -12 -15z m48 -24 c1 -21 -3 -37 -7 -35 -9 6 -9 75 0 75 3 0 7 -18 7 -40z
m244 36 c0 -3 -4 -8 -10 -11 -5 -3 -10 -1 -10 4 0 6 5 11 10 11 6 0 10 -2 10
-4z m-1223 -28 c2 -17 0 -19 -7 -8 -5 8 -6 18 -4 22 8 12 10 10 11 -14z m843
2 c0 -11 -2 -20 -4 -20 -2 0 -6 9 -9 20 -3 11 -1 20 4 20 5 0 9 -9 9 -20z
m-640 -27 c0 -34 -1 -35 -14 -17 -8 10 -10 21 -5 22 5 2 9 10 9 18 0 8 2 14 5
14 3 0 5 -17 5 -37z m680 28 c0 -6 -4 -12 -8 -15 -5 -3 -9 1 -9 9 0 8 4 15 9
15 4 0 8 -4 8 -9z m307 -8 c-10 -9 -56 -10 -51 -1 3 5 12 7 20 4 8 -3 14 -1
14 5 0 6 5 7 11 4 6 -4 8 -9 6 -12z m101 5 c-2 -5 -8 -9 -13 -9 -5 0 -11 4
-13 9 -1 5 4 9 13 9 9 0 14 -4 13 -9z m-838 -6 c0 -5 -7 -9 -15 -9 -8 0 -15 4
-15 9 0 4 7 8 15 8 8 0 15 -4 15 -8z m35 -20 c-9 -2 -13 -8 -10 -13 4 -5 -1
-9 -9 -9 -8 0 -18 5 -21 10 -3 6 1 10 10 10 8 0 18 7 22 16 5 13 7 13 14 2 6
-8 3 -14 -6 -16z m-213 -14 c-8 -8 -9 -4 -5 13 4 13 8 18 11 10 2 -7 -1 -18
-6 -23z m943 22 c3 -5 1 -10 -4 -10 -6 0 -11 5 -11 10 0 6 2 10 4 10 3 0 8 -4
11 -10z m-478 -6 c-3 -3 -12 -4 -19 -1 -8 3 -5 6 6 6 11 1 17 -2 13 -5z m-194
-24 c-3 -11 -7 -20 -9 -20 -2 0 -4 9 -4 20 0 11 4 20 9 20 5 0 7 -9 4 -20z
m144 -2 c-3 -8 -6 -5 -6 6 -1 11 2 17 5 13 3 -3 4 -12 1 -19z m148 12 c3 -6
-1 -7 -9 -4 -18 7 -21 14 -7 14 6 0 13 -4 16 -10z m45 6 c0 -11 -47 -55 -53
-50 -3 3 6 17 21 30 28 25 32 27 32 20z m280 0 c0 -3 -4 -8 -10 -11 -5 -3 -10
-1 -10 4 0 6 5 11 10 11 6 0 10 -2 10 -4z m34 -4 c3 -5 -1 -9 -9 -9 -8 0 -12
4 -9 9 3 4 7 8 9 8 2 0 6 -4 9 -8z m-274 -12 c-8 -5 -19 -10 -25 -10 -5 0 -3
5 5 10 8 5 20 10 25 10 6 0 3 -5 -5 -10z m-752 -36 c-4 -3 -12 5 -18 18 -12
22 -12 22 6 6 10 -10 15 -20 12 -24z m-33 16 c3 -5 1 -10 -4 -10 -6 0 -11 5
-11 10 0 6 2 10 4 10 3 0 8 -4 11 -10z m85 6 c0 -2 -8 -10 -17 -17 -16 -13
-17 -12 -4 4 13 16 21 21 21 13z m340 -33 c-11 -17 -11 -17 -6 0 3 10 6 24 7
30 0 9 2 9 5 0 3 -7 0 -20 -6 -30z m740 16 c0 -5 -7 -9 -16 -9 -11 0 -14 -5
-9 -17 9 -22 17 -62 9 -46 -3 7 -11 10 -19 7 -7 -3 -16 -1 -20 5 -3 6 0 9 8 5
11 -4 14 4 11 34 -2 35 0 39 17 35 10 -3 19 -9 19 -14z m-897 -10 c-4 -15 -8
-17 -14 -8 -6 11 4 28 18 29 0 0 -1 -9 -4 -21z m482 11 c3 -5 -1 -10 -10 -10
-9 0 -13 5 -10 10 3 6 8 10 10 10 2 0 7 -4 10 -10z m150 0 c3 -5 2 -10 -4 -10
-5 0 -13 5 -16 10 -3 6 -2 10 4 10 5 0 13 -4 16 -10z m-935 -10 c-18 -12 -60
-13 -60 -2 0 4 17 8 37 9 26 1 33 -1 23 -7z m184 -5 c-6 -14 6 -20 29 -16 5 1
6 -3 2 -8 -4 -7 -14 -6 -30 1 -19 9 -22 14 -14 25 15 17 20 17 13 -2z m-149
-5 c3 -5 1 -10 -4 -10 -6 0 -11 5 -11 10 0 6 2 10 4 10 3 0 8 -4 11 -10z m355
0 c0 -5 -2 -10 -4 -10 -3 0 -8 5 -11 10 -3 6 -1 10 4 10 6 0 11 -4 11 -10z
m180 6 c0 -3 -4 -8 -10 -11 -5 -3 -10 -1 -10 4 0 6 5 11 10 11 6 0 10 -2 10
-4z m57 -18 c-3 -8 -6 -5 -6 6 -1 11 2 17 5 13 3 -3 4 -12 1 -19z m235 -10
c-7 -7 -12 -8 -12 -2 0 14 12 26 19 19 2 -3 -1 -11 -7 -17z m-966 -16 c-1 -12
10 -19 34 -23 l35 -6 -37 -2 c-24 -1 -38 4 -38 12 0 8 -3 7 -10 -3 -6 -10 -9
-6 -8 17 1 20 5 30 13 27 7 -3 12 -13 11 -22z m101 17 c-9 -6 -15 -14 -12 -20
4 -5 2 -9 -3 -9 -18 0 -21 29 -4 33 30 8 37 7 19 -4z m148 -8 c-3 -6 -14 -10
-23 -10 -15 1 -15 2 1 6 9 2 17 9 17 15 0 6 3 9 6 5 3 -3 3 -10 -1 -16z m235
3 c0 -2 -7 -4 -15 -4 -8 0 -15 4 -15 10 0 5 7 7 15 4 8 -4 15 -8 15 -10z m840
12 c0 -3 -4 -8 -10 -11 -5 -3 -10 -1 -10 4 0 6 5 11 10 11 6 0 10 -2 10 -4z
m-890 -15 c0 -6 -4 -12 -8 -15 -5 -3 -9 1 -9 9 0 8 4 15 9 15 4 0 8 -4 8 -9z
m135 -1 c3 -6 -1 -7 -9 -4 -18 7 -21 14 -7 14 6 0 13 -4 16 -10z m245 6 c0 -3
-4 -8 -10 -11 -5 -3 -10 -1 -10 4 0 6 5 11 10 11 6 0 10 -2 10 -4z m-760 -10
c0 -2 -9 -6 -20 -9 -11 -3 -20 -1 -20 4 0 5 9 9 20 9 11 0 20 -2 20 -4z m346
-11 c-3 -8 0 -15 7 -16 7 0 1 -5 -13 -11 -23 -9 -24 -11 -6 -17 17 -6 17 -8 4
-14 -17 -6 -32 16 -20 28 4 4 8 11 8 16 1 5 2 14 3 19 0 6 6 10 12 10 6 0 9
-7 5 -15z m-430 -70 c-1 -39 -19 -30 -20 10 -1 22 -6 30 -18 29 -10 -1 -18 4
-18 12 0 7 6 11 14 8 8 -3 18 0 22 7 10 16 21 -22 20 -66z m191 69 c-3 -3 -12
-4 -19 -1 -8 3 -5 6 6 6 11 1 17 -2 13 -5z m186 -6 c11 9 14 8 14 -3 0 -8 -10
-23 -21 -32 -20 -17 -20 -17 -6 1 13 18 13 19 0 14 -11 -4 -16 1 -18 15 -1 17
1 18 8 8 6 -12 12 -12 23 -3z m201 3 c4 -5 -3 -7 -14 -4 -23 6 -26 13 -6 13 8
0 17 -4 20 -9z m71 -1 c3 -6 -1 -7 -9 -4 -18 7 -21 14 -7 14 6 0 13 -4 16 -10z
m355 0 c0 -5 -2 -10 -4 -10 -3 0 -8 5 -11 10 -3 6 -1 10 4 10 6 0 11 -4 11
-10z m60 0 c0 -5 -4 -10 -10 -10 -5 0 -10 5 -10 10 0 6 5 10 10 10 6 0 10 -4
10 -10z m290 -16 c0 -8 -5 -14 -10 -14 -6 0 -5 -8 2 -20 10 -16 10 -24 1 -40
-7 -10 -10 -25 -8 -33 3 -7 -7 -24 -22 -37 -15 -14 -23 -19 -16 -11 6 7 9 20
5 29 -4 12 -1 14 12 9 14 -6 17 -3 12 8 -3 9 0 25 6 35 10 16 10 22 -1 32 -12
11 -13 10 -8 -5 4 -10 3 -16 -2 -12 -5 3 -11 1 -13 -5 -2 -6 -8 -6 -18 0 -13
8 -13 10 2 10 15 0 43 53 39 73 -1 5 3 6 9 2 5 -3 10 -13 10 -21z m-1030 -10
c0 -2 -8 0 -19 5 -10 6 -22 7 -26 3 -5 -4 -5 -1 -1 6 5 9 12 9 27 2 10 -6 19
-13 19 -16z m200 22 c0 -2 -11 -6 -25 -8 -14 -3 -25 -1 -25 3 0 5 11 9 25 9
14 0 25 -2 25 -4z m260 -42 c0 -2 -11 2 -25 8 -14 6 -25 15 -25 20 0 5 11 1
25 -8 14 -9 25 -18 25 -20z m524 20 c4 -10 1 -14 -6 -12 -15 5 -23 28 -10 28
5 0 13 -7 16 -16z m-737 0 c-3 -3 -12 -4 -19 -1 -8 3 -5 6 6 6 11 1 17 -2 13
-5z m53 -18 c0 -2 -9 -2 -20 1 -11 3 -20 9 -20 15 0 5 9 4 20 -2 11 -6 20 -12
20 -14z m75 12 c5 4 5 2 2 -5 -4 -6 -15 -10 -25 -8 -9 2 -24 4 -32 5 -10 1 -9
4 5 9 11 5 25 5 31 0 6 -5 15 -5 19 -1z m473 -13 c-3 -3 -9 2 -12 12 -6 14 -5
15 5 6 7 -7 10 -15 7 -18z m-1142 -5 c0 -11 -4 -20 -8 -20 -10 0 -11 24 -1 33
9 9 9 10 9 -13z m191 -2 c-12 -10 -26 -18 -32 -18 -5 0 -3 5 5 10 12 8 13 12
2 19 -9 5 -4 8 17 7 l31 -1 -23 -17z m323 8 c6 -8 18 -12 26 -9 8 3 14 0 14
-6 0 -6 -7 -11 -15 -11 -8 0 -15 -6 -16 -12 0 -10 -2 -10 -6 -1 -2 7 -3 15 -1
17 2 3 -6 12 -17 20 -11 9 -15 16 -9 16 6 0 17 -6 24 -14z m491 -9 c-10 -9
-11 -8 -5 6 3 10 9 15 12 12 3 -3 0 -11 -7 -18z m-1065 -18 c-5 -25 -2 -32 14
-36 11 -3 20 -8 20 -12 0 -3 16 -7 35 -8 19 -1 35 3 35 8 0 5 -7 9 -15 9 -8 0
-15 9 -15 20 0 11 5 20 10 20 6 0 10 -6 10 -14 0 -19 32 -30 42 -14 12 20 9
28 -9 21 -10 -4 -14 -2 -10 4 8 12 -20 26 -34 17 -5 -3 -9 0 -9 5 0 15 16 14
51 -5 23 -11 29 -20 24 -35 -4 -12 -1 -21 9 -25 14 -5 14 -9 0 -36 -9 -18 -21
-28 -29 -24 -8 3 -19 -3 -24 -12 -6 -9 -11 -12 -11 -6 0 5 7 19 15 30 8 11 15
14 15 7 0 -7 4 -13 10 -13 5 0 6 7 3 17 -4 10 -2 14 4 10 7 -5 9 0 6 14 -5 18
-7 19 -15 5 -5 -9 -16 -16 -23 -16 -8 0 -15 -7 -15 -15 0 -8 -4 -15 -9 -15 -5
0 -8 7 -7 16 0 9 -5 19 -13 22 -8 2 -11 0 -7 -6 3 -6 3 -17 0 -26 -5 -12 -10
-13 -32 -3 -15 6 -29 12 -31 14 -7 5 -19 87 -14 100 10 27 25 13 19 -18z m175
9 c11 -21 11 -22 -4 -9 -10 7 -17 17 -17 22 0 15 9 10 21 -13z m329 18 c0 -11
-19 -15 -25 -6 -3 5 1 10 9 10 9 0 16 -2 16 -4z m260 -6 c0 -5 -2 -10 -4 -10
-3 0 -8 5 -11 10 -3 6 -1 10 4 10 6 0 11 -4 11 -10z m130 -5 c0 -8 -4 -15 -10
-15 -5 0 -7 7 -4 15 4 8 8 15 10 15 2 0 4 -7 4 -15z m41 -8 c-10 -9 -11 -8 -5
6 3 10 9 15 12 12 3 -3 0 -11 -7 -18z m379 13 c0 -5 -4 -10 -10 -10 -5 0 -10
5 -10 10 0 6 5 10 10 10 6 0 10 -4 10 -10z m-868 -23 c9 -3 19 -2 22 4 2 5 4
5 3 -1 -2 -7 -6 -11 -10 -11 -4 1 -16 1 -27 1 -12 0 -20 7 -20 18 0 10 3 13 8
6 4 -6 15 -13 24 -17z m85 1 c-3 -8 -6 -5 -6 6 -1 11 2 17 5 13 3 -3 4 -12 1
-19z m708 2 c-3 -5 -13 -6 -21 -3 -12 4 -13 8 -3 14 15 9 32 2 24 -11z m-821
-38 c-5 -9 -33 13 -37 29 -5 19 -4 19 17 -3 12 -13 21 -24 20 -26z m253 42
c-3 -3 -12 -4 -19 -1 -8 3 -5 6 6 6 11 1 17 -2 13 -5z m433 2 c0 -3 -4 -8 -10
-11 -5 -3 -10 -1 -10 4 0 6 5 11 10 11 6 0 10 -2 10 -4z m-1045 -36 c-3 -5
-10 -10 -16 -10 -5 0 -9 5 -9 10 0 6 7 10 16 10 8 0 12 -4 9 -10z m130 0 c3
-5 1 -10 -4 -10 -6 0 -11 5 -11 10 0 6 2 10 4 10 3 0 8 -4 11 -10z m445 4 c0
-3 -7 -12 -15 -20 -16 -17 -18 -14 -9 10 6 15 24 23 24 10z m-400 -19 c0 -8
-4 -15 -10 -15 -5 0 -7 7 -4 15 4 8 8 15 10 15 2 0 4 -7 4 -15z m250 5 c0 -5
-4 -10 -10 -10 -5 0 -10 5 -10 10 0 6 5 10 10 10 6 0 10 -4 10 -10z m-887 -16
c37 -20 47 -31 47 -60 0 -24 -33 -42 -70 -38 -14 1 -31 3 -38 3 -8 1 -10 9 -6
25 3 15 -1 29 -11 40 -40 40 16 61 78 30z m853 -6 c-1 -14 4 -22 12 -20 8 1
11 -2 7 -8 -3 -5 -1 -19 5 -30 10 -19 8 -20 -30 -20 -50 0 -56 2 -52 16 1 7
-5 15 -15 17 -16 4 -16 5 -1 6 9 0 23 -6 31 -13 16 -17 59 -17 54 -1 -2 5 -12
9 -21 9 -12 -2 -14 1 -6 10 5 7 7 16 4 19 -6 6 2 37 9 37 2 0 3 -10 3 -22z
m331 0 c-3 -8 -6 -5 -6 6 -1 11 2 17 5 13 3 -3 4 -12 1 -19z m423 -3 c14 -19
14 -19 -2 -6 -10 7 -18 18 -18 24 0 6 1 8 3 6 1 -2 9 -13 17 -24z m70 10 c0
-8 -4 -15 -10 -15 -5 0 -7 7 -4 15 4 8 8 15 10 15 2 0 4 -7 4 -15z m-850 -5
c0 -5 -12 -10 -27 -9 l-28 1 25 8 c14 4 26 8 28 9 1 1 2 -3 2 -9z m310 -23
c11 -5 9 -6 -4 -4 -11 1 -21 9 -23 17 -3 10 -2 11 4 4 4 -6 15 -14 23 -17z
m-475 4 c3 -5 0 -13 -6 -17 -7 -4 -9 -3 -5 4 3 5 0 13 -6 15 -9 4 -10 6 -1 6
6 1 14 -3 18 -8z m269 -2 c-6 -11 34 -21 48 -13 10 5 10 4 1 -6 -9 -9 -18 -9
-47 1 -40 14 -47 25 -17 25 11 0 18 -3 15 -7z m156 1 c0 -5 -5 -10 -11 -10 -5
0 -7 5 -4 10 3 6 8 10 11 10 2 0 4 -4 4 -10z m-495 -10 c-3 -5 -12 -10 -18
-10 -7 0 -6 4 3 10 19 12 23 12 15 0z m145 1 c0 -6 -4 -13 -10 -16 -5 -3 -10
1 -10 9 0 9 5 16 10 16 6 0 10 -4 10 -9z m-1347 -18 c-7 -3 -13 -15 -13 -28 0
-30 -25 -38 -85 -29 -39 5 -45 10 -45 30 0 27 20 34 87 32 24 -1 46 1 50 5 3
4 9 4 12 1 3 -4 0 -9 -6 -11z m1299 -8 c3 -14 1 -25 -3 -25 -5 0 -9 11 -9 25
0 14 2 25 4 25 2 0 6 -11 8 -25z m343 -3 c-3 -3 -15 -7 -26 -9 -16 -2 -18 -1
-7 11 7 7 19 11 26 9 7 -3 10 -8 7 -11z m73 4 c-7 -8 -15 -12 -17 -11 -5 6 10
25 20 25 5 0 4 -6 -3 -14z m-33 -6 c3 -5 -1 -10 -10 -10 -9 0 -13 5 -10 10 3
6 8 10 10 10 2 0 7 -4 10 -10z m95 0 c0 -5 -8 -10 -17 -10 -15 0 -16 2 -3 10
19 12 20 12 20 0z m-510 -10 c0 -5 -2 -10 -4 -10 -3 0 -8 5 -11 10 -3 6 -1 10
4 10 6 0 11 -4 11 -10z m-100 -10 c0 -5 -2 -10 -4 -10 -3 0 -8 5 -11 10 -3 6
-1 10 4 10 6 0 11 -4 11 -10z"/>
<path d="M7274 6678 c0 -12 8 -22 18 -24 14 -2 15 2 6 22 -14 30 -26 31 -24 2z"/>
<path d="M7330 6630 c0 -5 4 -10 9 -10 6 0 13 5 16 10 3 6 -1 10 -9 10 -9 0
-16 -4 -16 -10z"/>
<path d="M7490 6689 c0 -5 5 -7 10 -4 6 3 10 8 10 11 0 2 -4 4 -10 4 -5 0 -10
-5 -10 -11z"/>
<path d="M7540 6555 c-6 -8 -9 -19 -5 -25 11 -17 21 -11 23 15 2 29 -1 31 -18
10z"/>
<path d="M7546 6402 c-3 -6 -1 -14 5 -17 15 -10 25 3 12 16 -7 7 -13 7 -17 1z"/>
<path d="M7370 6301 c0 -5 5 -13 10 -16 6 -3 10 -2 10 4 0 5 -4 13 -10 16 -5
3 -10 2 -10 -4z"/>
<path d="M7795 6363 c11 -3 24 -10 28 -17 6 -7 7 -6 4 4 -2 8 -14 16 -28 17
-19 1 -20 1 -4 -4z"/>
<path d="M7795 6340 c-3 -5 -1 -10 4 -10 6 0 11 5 11 10 0 6 -2 10 -4 10 -3 0
-8 -4 -11 -10z"/>
<path d="M7770 6320 c0 -5 5 -10 11 -10 5 0 7 5 4 10 -3 6 -8 10 -11 10 -2 0
-4 -4 -4 -10z"/>
<path d="M7812 6318 c-14 -14 -16 -38 -3 -38 10 0 26 39 19 46 -2 2 -10 -2
-16 -8z"/>
<path d="M7395 5930 c3 -4 14 -10 25 -13 11 -3 18 -2 15 3 -3 4 -14 10 -25 13
-11 3 -18 2 -15 -3z"/>
<path d="M6882 6807 c-30 -46 -51 -104 -32 -92 5 3 10 15 10 26 0 10 7 19 15
19 8 0 15 6 15 13 0 8 9 24 20 37 16 19 19 40 5 40 -2 0 -17 -19 -33 -43z"/>
<path d="M6693 6763 c-42 -8 -24 -21 27 -20 50 2 63 10 34 21 -16 6 -24 6 -61
-1z"/>
<path d="M6945 6750 c3 -5 13 -10 21 -10 8 0 12 5 9 10 -3 6 -13 10 -21 10 -8
0 -12 -4 -9 -10z"/>
<path d="M7029 6720 c24 -11 46 -18 49 -15 5 5 -26 18 -68 29 -14 3 -5 -3 19
-14z"/>
<path d="M7000 6683 c0 -6 5 -15 11 -18 13 -9 33 -56 30 -75 -1 -11 3 -10 14
4 18 24 20 46 3 46 -7 0 -22 12 -35 28 -12 15 -22 22 -23 15z"/>
<path d="M6998 6588 c7 -7 12 -20 12 -30 0 -10 5 -18 10 -18 6 0 10 8 10 18 0
20 -18 42 -34 42 -6 0 -5 -5 2 -12z"/>
<path d="M8697 6543 c-4 -3 -7 -13 -7 -21 0 -12 3 -12 15 -2 12 10 15 10 15
-4 0 -9 5 -16 10 -16 13 0 13 6 0 31 -11 20 -22 24 -33 12z"/>
<path d="M8795 6229 c-4 -6 -13 -8 -21 -5 -22 9 -16 -12 7 -25 12 -6 17 -14
12 -18 -5 -3 -7 -17 -4 -30 6 -21 8 -22 19 -8 15 17 6 67 -12 67 -6 0 -2 7 8
15 11 8 15 15 9 15 -7 0 -15 -5 -18 -11z"/>
<path d="M6794 5909 c-19 -22 -19 -22 2 -11 12 6 24 8 28 5 3 -3 6 1 6 10 0
23 -13 21 -36 -4z"/>
<path d="M8735 5870 c-3 -5 -2 -10 4 -10 5 0 13 5 16 10 3 6 2 10 -4 10 -5 0
-13 -4 -16 -10z"/>
<path d="M5056 5802 c-3 -6 9 -12 27 -15 53 -8 779 5 769 15 -5 5 -160 4 -353
-1 -340 -9 -378 -9 -417 3 -11 4 -23 3 -26 -2z"/>
<path d="M7647 5790 c-53 -10 -58 -20 -10 -20 27 0 43 5 47 15 3 8 4 14 3 14
-1 -1 -19 -5 -40 -9z"/>
<path d="M6980 5780 c-76 -5 -80 -6 -35 -10 67 -7 155 0 155 11 0 5 -8 8 -17
7 -10 -1 -56 -4 -103 -8z"/>
<path d="M7365 5779 c-16 -5 -67 -6 -111 -3 -60 5 -83 3 -89 -6 -10 -17 271
-10 300 8 17 10 14 11 -25 11 -25 0 -58 -5 -75 -10z"/>
<path d="M7521 5783 c-1 -18 13 -23 29 -11 12 8 12 9 -2 5 -9 -3 -19 -1 -22 6
-3 9 -5 9 -5 0z"/>
<path d="M8367 5749 c7 -7 15 -10 18 -7 3 3 -2 9 -12 12 -14 6 -15 5 -6 -5z"/>
<path d="M2615 5730 c-8 -13 15 -13 35 0 12 8 11 10 -7 10 -12 0 -25 -4 -28
-10z"/>
<path d="M2400 5720 c0 -5 5 -10 11 -10 5 0 7 5 4 10 -3 6 -8 10 -11 10 -2 0
-4 -4 -4 -10z"/>
<path d="M8488 5723 c7 -3 16 -2 19 1 4 3 -2 6 -13 5 -11 0 -14 -3 -6 -6z"/>
<path d="M2448 5713 c7 -3 16 -2 19 1 4 3 -2 6 -13 5 -11 0 -14 -3 -6 -6z"/>
</g>
</svg>
