<?xml version="1.0" encoding="utf-8"?>
<!-- Generator: Adobe Illustrator 16.0.0, SVG Export Plug-In . SVG Version: 6.00 Build 0)  -->
<!DOCTYPE svg PUBLIC "-//W3C//DTD SVG 1.1//EN" "http://www.w3.org/Graphics/SVG/1.1/DTD/svg11.dtd">
<svg version="1.1" id="Layer_1" xmlns="http://www.w3.org/2000/svg" xmlns:xlink="http://www.w3.org/1999/xlink" x="0px" y="0px"
	 width="24px" height="24px" viewBox="0 0 24 24" enable-background="new 0 0 24 24" xml:space="preserve">
<g>
	<path d="M10.3,12.135c0.479,0,0.866-0.429,0.866-0.953c0-0.531-0.388-0.956-0.866-0.956c-0.478,0-0.867,0.425-0.867,0.956
		C9.433,11.706,9.822,12.135,10.3,12.135z M10.466,10.346c0.218,0,0.394,0.192,0.394,0.434c0,0.24-0.176,0.438-0.394,0.438
		c-0.22,0-0.397-0.197-0.397-0.438C10.069,10.538,10.247,10.346,10.466,10.346z"/>
	<path d="M13.573,12.135c0.478,0,0.864-0.429,0.864-0.953c0-0.531-0.387-0.956-0.864-0.956s-0.867,0.425-0.867,0.956
		C12.706,11.706,13.096,12.135,13.573,12.135z M13.738,10.346c0.218,0,0.397,0.192,0.397,0.434c0,0.24-0.179,0.438-0.397,0.438
		s-0.394-0.197-0.394-0.438C13.345,10.538,13.521,10.346,13.738,10.346z"/>
	<path d="M18.965,8.225h-0.279c0.071-0.453,0.162-1.318-0.065-1.904c-0.005-0.014-0.021-0.018-0.028-0.029
		c-0.006-0.012-0.002-0.025-0.011-0.037c-0.013-0.016-0.035-0.016-0.051-0.027c-0.027-0.021-0.05-0.037-0.083-0.046
		c-0.031-0.009-0.057-0.006-0.089-0.002c-0.021,0.003-0.041-0.009-0.062-0.001c-0.014,0.005-0.017,0.02-0.029,0.027
		c-0.011,0.007-0.026,0.002-0.037,0.011l-0.158,0.126c0.096-0.751,0.243-1.984,0.243-2.529c0-0.021-0.018-0.036-0.023-0.057
		c-0.005-0.02,0.005-0.041-0.005-0.06c-0.006-0.013-0.021-0.014-0.029-0.024c-0.02-0.027-0.043-0.043-0.072-0.06
		c-0.028-0.017-0.051-0.03-0.084-0.034c-0.014-0.003-0.022-0.016-0.036-0.016c-0.022,0-0.036,0.018-0.057,0.023
		c-0.02,0.005-0.041-0.004-0.06,0.006l-0.323,0.17L16.93,1.787c-0.01-0.027-0.038-0.039-0.056-0.062
		c-0.019-0.023-0.025-0.054-0.053-0.07c-0.004-0.002-0.008,0.001-0.012-0.002c-0.03-0.017-0.063-0.011-0.096-0.014
		c-0.032-0.003-0.061-0.014-0.091-0.005c-0.003,0.002-0.007-0.002-0.011,0c-0.028,0.01-0.04,0.037-0.062,0.056
		c-0.023,0.019-0.054,0.025-0.07,0.053l-0.432,0.731l-1.053-1.592c-0.015-0.023-0.042-0.026-0.062-0.043
		c-0.021-0.017-0.03-0.043-0.056-0.053c-0.007-0.004-0.015,0.002-0.022,0c-0.033-0.01-0.062-0.002-0.096,0.002
		c-0.032,0.004-0.06,0.003-0.088,0.018c-0.007,0.004-0.015,0-0.022,0.005c-0.023,0.015-0.026,0.042-0.042,0.063
		c-0.017,0.021-0.043,0.03-0.053,0.056L14.23,1.764l-2.339-1.715c-0.023-0.018-0.051-0.011-0.076-0.02
		C11.79,0.021,11.771,0,11.743,0c-0.007,0-0.011,0.007-0.019,0.008c-0.034,0.002-0.058,0.021-0.088,0.037
		c-0.029,0.014-0.057,0.022-0.078,0.047c-0.004,0.005-0.013,0.004-0.017,0.01c-0.017,0.023-0.011,0.051-0.019,0.076
		c-0.009,0.025-0.03,0.044-0.03,0.072v0.571L9.946,0.035h0L9.93,0.027c-0.025-0.014-0.053-0.002-0.08-0.006
		C9.819,0.016,9.79-0.002,9.757,0.008c-0.003,0-0.004,0.004-0.008,0.006c-0.03,0.008-0.047,0.033-0.072,0.053
		C9.649,0.088,9.618,0.102,9.601,0.131C9.6,0.134,9.596,0.134,9.594,0.137C9.58,0.164,9.591,0.193,9.587,0.223
		C9.583,0.252,9.566,0.279,9.574,0.311l0.237,0.953C9.42,0.998,8.887,0.738,8.11,0.553C8.105,0.552,8.102,0.556,8.097,0.555
		S8.091,0.549,8.086,0.549C8.055,0.543,8.031,0.563,8.002,0.57C7.971,0.576,7.94,0.574,7.914,0.592
		c-0.028,0.02-0.039,0.051-0.058,0.08C7.842,0.695,7.816,0.709,7.809,0.738C7.808,0.742,7.812,0.746,7.811,0.751
		c0,0.005-0.006,0.007-0.006,0.011L7.566,2.504L7.265,2.292C7.242,2.275,7.215,2.283,7.19,2.275
		c-0.031-0.01-0.057-0.023-0.089-0.021C7.067,2.258,7.043,2.275,7.014,2.291c-0.023,0.012-0.05,0.01-0.069,0.029
		c-0.008,0.008-0.012,0.02-0.02,0.027C6.922,2.35,6.918,2.35,6.917,2.353s0,0.007-0.002,0.009C6.596,2.725,6.556,3.43,6.575,3.934
		l-0.504-0.33C6.049,3.589,6.023,3.597,5.999,3.59c-0.023-0.008-0.04-0.027-0.065-0.027c-0.009,0-0.015,0.009-0.024,0.01
		c-0.034,0.003-0.058,0.02-0.088,0.037C5.793,3.625,5.767,3.635,5.747,3.66C5.741,3.668,5.73,3.667,5.725,3.676
		C5.71,3.697,5.718,3.723,5.711,3.746C5.704,3.77,5.684,3.786,5.684,3.813c0,0.545,0.146,1.778,0.243,2.529L5.769,6.216
		C5.758,6.207,5.743,6.212,5.731,6.205C5.72,6.197,5.716,6.183,5.703,6.178C5.682,6.17,5.663,6.182,5.642,6.179
		C5.609,6.175,5.583,6.172,5.552,6.181C5.519,6.189,5.496,6.205,5.469,6.227C5.453,6.238,5.431,6.238,5.417,6.254
		C5.409,6.266,5.413,6.279,5.407,6.291C5.399,6.303,5.384,6.307,5.379,6.32C5.152,6.906,5.243,7.771,5.314,8.225H5.035
		c-0.138,0-0.25,0.112-0.25,0.25c0,0.958,1.511,3.131,1.683,3.375c0.008,0.012,0.025,0.008,0.035,0.018
		c0.013,0.014,0.014,0.035,0.03,0.045l1.236,0.838c0.175,0.337,0.368,0.649,0.58,0.936c-0.761,1.91-0.907,3.246-0.423,3.967
		c0.176,0.262,0.407,0.389,0.6,0.449v1.05c0,0.138,0.112,0.25,0.25,0.25h0.023l0.03,2.802c0,0.039,0.026,0.068,0.043,0.102
		c0.012,0.023,0.012,0.055,0.031,0.073c0.045,0.045,0.107,0.073,0.176,0.073c0.001,0,0.002,0,0.003,0h0.209l0.243,1.344
		C9.555,23.914,9.659,24,9.78,24h0.768c0.103,0,0.196-0.063,0.233-0.16l0.539-1.389h0.261l0,0h0c0.063,0,0.119-0.027,0.165-0.068
		c0.016-0.015,0.019-0.033,0.031-0.051c0.018-0.027,0.042-0.049,0.049-0.082l0.146-0.712l0.145,0.712
		c0.007,0.033,0.031,0.055,0.049,0.082c0.012,0.018,0.015,0.036,0.031,0.051c0.045,0.041,0.102,0.068,0.165,0.068h0l0,0h0.253
		l0.537,1.389c0.038,0.097,0.13,0.16,0.233,0.16h0.771c0.121,0,0.225-0.087,0.246-0.206l0.241-1.343h0.22c0.001,0,0.001,0,0.002,0
		c0.068,0,0.13-0.028,0.176-0.073c0.019-0.019,0.019-0.05,0.031-0.073c0.017-0.033,0.042-0.063,0.043-0.102l0.029-2.802h0.025
		c0.138,0,0.25-0.112,0.25-0.25v-1.05c0.193-0.061,0.423-0.188,0.6-0.449c0.485-0.721,0.339-2.061-0.426-3.975
		c0.202-0.273,0.386-0.57,0.554-0.89c0.018-0.007,0.037-0.005,0.053-0.017l1.269-0.859c0.016-0.01,0.017-0.031,0.03-0.045
		c0.01-0.01,0.026-0.006,0.035-0.018c0.172-0.244,1.683-2.417,1.683-3.375C19.215,8.337,19.104,8.225,18.965,8.225z M8.052,9.936
		c0.024,0,0.048-0.004,0.072-0.011c0.021-0.007,0.029-0.027,0.047-0.038C8.2,9.869,8.224,9.854,8.243,9.828
		c0.02-0.027,0.027-0.053,0.035-0.086c0.006-0.02,0.024-0.034,0.024-0.057c0-0.014-0.012-0.021-0.015-0.035
		C8.286,9.638,8.295,9.627,8.292,9.613L7.912,8.35c0.043,0.029,0.091,0.045,0.14,0.045c0.078,0,0.141-0.041,0.187-0.097
		c0.004-0.006,0.013-0.003,0.018-0.009c0.016-0.023,0.009-0.05,0.017-0.075c0.008-0.024,0.029-0.042,0.029-0.069V7.498l0.446,0.414
		c0.007,0.006,0.018,0.004,0.026,0.01C8.781,7.928,8.782,7.938,8.79,7.942c0.04,0.024,0.084,0.036,0.128,0.036
		c0.061,0,0.115-0.029,0.162-0.07c0.006-0.006,0.016-0.004,0.022-0.01C9.106,7.893,9.104,7.885,9.108,7.88
		c0.007-0.009,0.018-0.013,0.024-0.023l0.309-0.516l0.897,0.973c0.017,0.019,0.042,0.015,0.062,0.026
		c0.023,0.016,0.038,0.041,0.067,0.048c0.019,0.005,0.037,0.007,0.055,0.007c0.061,0,0.116-0.025,0.161-0.063
		c0.002-0.002,0.006-0.001,0.009-0.003c0.012-0.012,0.009-0.028,0.019-0.041c0.021-0.027,0.047-0.052,0.056-0.088l0.125-0.549
		l0.676,0.671c0.001,0.001,0.004,0.001,0.006,0.003c0.002,0.001,0.001,0.004,0.003,0.006c0.003,0.003,0.009,0.002,0.012,0.004
		c0.003,0.003,0.003,0.008,0.006,0.011c0.045,0.033,0.097,0.05,0.149,0.05c0.047,0,0.088-0.028,0.129-0.055l-0.719,2.119
		c-0.003,0.009,0.003,0.016,0.001,0.024c-0.007,0.032,0.001,0.06,0.006,0.092c0.005,0.033,0.005,0.063,0.023,0.091
		c0.004,0.008,0,0.016,0.006,0.023c0.012,0.016,0.033,0.012,0.048,0.023c0.024,0.021,0.04,0.053,0.072,0.063
		c0.026,0.009,0.054,0.013,0.08,0.013c0.053,0,0.104-0.018,0.146-0.049c0.001,0,0.002,0,0.003,0c1.991-1.488,2.747-2.59,3.005-3.329
		l0.267,0.445c0.006,0.011,0.017,0.015,0.024,0.023c0.004,0.005,0.002,0.013,0.007,0.019c0.006,0.006,0.016,0.004,0.022,0.009
		c0.046,0.042,0.101,0.071,0.162,0.071c0.044,0,0.088-0.012,0.128-0.036c0.008-0.005,0.008-0.015,0.015-0.021
		c0.008-0.006,0.019-0.004,0.026-0.01l0.447-0.414v0.646c0,0.027,0.021,0.045,0.029,0.069c0.008,0.025,0.001,0.052,0.017,0.075
		c0.004,0.006,0.013,0.003,0.018,0.009c0.046,0.056,0.108,0.097,0.187,0.097c0.048,0,0.097-0.016,0.14-0.045l-0.379,1.264
		C15.65,9.627,15.66,9.638,15.658,9.65c-0.002,0.014-0.015,0.021-0.015,0.035c0,0.022,0.018,0.037,0.023,0.057
		c0.008,0.033,0.016,0.059,0.035,0.086c0.02,0.026,0.043,0.041,0.072,0.059c0.018,0.011,0.026,0.031,0.047,0.038
		c0.024,0.007,0.048,0.011,0.072,0.011h0.336v1.391c-0.757,2.379-2.43,3.917-4.262,3.917c-1.826,0-3.492-1.527-4.253-3.892V9.936
		H8.052z M14.139,6.582C14.2,6.809,14.3,7.857,11.896,9.826l0.821-2.42c0.001-0.006-0.002-0.01-0.001-0.015
		c0.438-0.448,0.917-0.839,1.246-0.866C14.038,6.517,14.089,6.543,14.139,6.582z M11.936,17.518l-2.003-2.362
		c0.633,0.374,1.321,0.588,2.036,0.588c0.705,0,1.382-0.21,2.007-0.573L11.936,17.518z M8.333,17.361
		c-0.187-0.287-0.372-1.012,0.192-2.709v2.9C8.46,17.51,8.393,17.455,8.333,17.361z M10.376,23.5H9.989l-0.189-1.049h0.984
		L10.376,23.5z M13.947,23.5h-0.391l-0.405-1.049h0.983L13.947,23.5z M14.617,21.951h-2.051l-0.344-1.693
		c-0.005-0.026-0.028-0.039-0.041-0.061c-0.009-0.018-0.018-0.029-0.03-0.045c-0.028-0.031-0.057-0.052-0.097-0.065
		c-0.014-0.006-0.021-0.021-0.037-0.024c-0.016-0.004-0.029,0.008-0.045,0.008c-0.016,0-0.029-0.012-0.045-0.008
		c-0.016,0.003-0.022,0.019-0.037,0.024c-0.04,0.015-0.068,0.033-0.097,0.065c-0.013,0.015-0.022,0.027-0.031,0.045
		c-0.012,0.021-0.035,0.035-0.041,0.061l-0.346,1.693H9.326l-0.027-2.55h2.669c0.002,0,0.003-0.002,0.005-0.002
		c0.001,0,0.002,0.002,0.004,0.002h2.667L14.617,21.951z M15.611,17.361c-0.06,0.094-0.127,0.148-0.192,0.191v-2.899
		C15.982,16.351,15.798,17.074,15.611,17.361z"/>
</g>
</svg>
