<?xml version="1.0" standalone="no"?>
<!DOCTYPE svg PUBLIC "-//W3C//DTD SVG 20010904//EN"
 "http://www.w3.org/TR/2001/REC-SVG-20010904/DTD/svg10.dtd">
<svg version="1.0" xmlns="http://www.w3.org/2000/svg"
 width="225.000000pt" height="224.000000pt" viewBox="0 0 225.000000 224.000000"
 preserveAspectRatio="xMidYMid meet">

<g transform="translate(0.000000,224.000000) scale(0.100000,-0.100000)"
fill="#000000" stroke="none">
<path d="M1047 2173 c-9 -9 -9 -43 1 -43 4 0 7 11 7 25 0 14 0 25 -1 25 0 0
-4 -3 -7 -7z"/>
<path d="M1077 2173 c-9 -9 -9 -43 1 -43 4 0 7 11 7 25 0 14 0 25 -1 25 0 0
-4 -3 -7 -7z"/>
<path d="M1010 2131 c0 -25 6 -27 13 -6 4 8 2 17 -3 20 -6 4 -10 -3 -10 -14z"/>
<path d="M680 2000 c0 -81 3 -100 15 -100 11 0 15 18 17 82 2 54 7 83 16 86 9
3 12 -18 12 -82 0 -69 3 -86 15 -86 11 0 15 18 17 83 2 46 7 82 13 82 6 0 11
-36 13 -82 2 -65 6 -83 17 -83 12 0 15 17 15 88 0 99 -9 123 -38 105 -15 -9
-22 -9 -31 0 -9 9 -16 8 -31 -1 -12 -7 -20 -8 -20 -2 0 5 -7 10 -15 10 -12 0
-15 -18 -15 -100z"/>
<path d="M878 2089 c-15 -8 -18 -24 -18 -87 0 -82 9 -102 45 -102 27 0 45 18
45 47 0 30 -28 30 -32 1 -5 -34 -23 -28 -26 10 -3 30 -1 32 27 32 29 0 31 2
31 39 0 58 -31 84 -72 60z m42 -50 c0 -10 -7 -19 -15 -19 -15 0 -21 31 -9 43
11 10 24 -3 24 -24z"/>
<path d="M992 2088 c-20 -20 -14 -64 13 -96 25 -30 34 -72 15 -72 -6 0 -13 7
-16 15 -6 14 -34 22 -34 9 0 -44 74 -62 89 -21 10 26 -3 65 -30 90 -20 19 -26
57 -9 57 6 0 10 -4 10 -10 0 -5 7 -10 15 -10 20 0 19 36 -1 44 -24 9 -39 7
-52 -6z"/>
<path d="M1108 2089 c-28 -16 -22 -63 13 -103 22 -26 28 -40 21 -51 -8 -15
-10 -15 -21 -1 -13 15 -41 22 -41 10 0 -22 24 -44 50 -44 29 0 50 22 50 54 0
8 -13 31 -30 49 -16 19 -30 42 -30 51 0 18 15 22 25 6 8 -13 35 -13 35 -1 0
14 -29 41 -43 41 -7 0 -20 -5 -29 -11z"/>
<path d="M1217 2082 c-10 -10 -17 -24 -17 -30 0 -17 27 -15 34 3 9 23 26 18
26 -8 0 -16 -9 -28 -25 -35 -26 -12 -39 -44 -33 -83 3 -21 9 -24 46 -26 l42
-2 0 88 c0 89 -8 111 -40 111 -9 0 -24 -8 -33 -18z m43 -122 c0 -20 -5 -30
-15 -30 -15 0 -21 40 -8 53 14 15 23 6 23 -23z"/>
<path d="M1336 2084 c-19 -19 -22 -104 -3 -123 10 -11 10 -14 0 -18 -16 -6
-17 -43 -1 -43 6 0 3 -9 -7 -20 -25 -27 -5 -50 44 -50 42 0 61 14 61 45 0 27
-18 45 -46 45 -34 0 -38 17 -7 32 25 12 28 20 31 66 2 28 7 52 13 52 5 0 9 7
9 16 0 13 -3 14 -14 5 -10 -8 -16 -9 -21 -1 -9 15 -41 12 -59 -6z m42 -70 c-2
-22 -7 -39 -13 -39 -12 0 -19 60 -10 83 10 28 27 -3 23 -44z m20 -141 c2 -8
-6 -13 -22 -13 -17 0 -26 5 -26 16 0 19 41 16 48 -3z"/>
<path d="M1462 2088 c-7 -7 -12 -42 -12 -88 0 -46 5 -81 12 -88 18 -18 56 -14
68 7 15 28 12 51 -5 51 -8 0 -15 -9 -15 -20 0 -11 -7 -20 -15 -20 -10 0 -15
10 -15 30 0 27 3 30 30 30 28 0 30 2 30 39 0 58 -45 92 -78 59z m46 -46 c2
-15 -2 -22 -12 -22 -11 0 -16 9 -16 26 0 31 23 28 28 -4z"/>
<path d="M1573 2008 c-2 -5 31 -7 74 -7 82 2 75 6 -15 11 -30 2 -56 0 -59 -4z"/>
<path d="M524 1935 l1 -45 63 0 c35 0 62 4 62 10 0 6 -25 10 -56 10 -71 0 -63
19 9 22 l52 1 -55 6 c-30 3 -55 11 -55 16 0 6 25 13 55 16 l55 6 -66 1 -66 2
1 -45z"/>
<path d="M1570 1970 c0 -6 32 -10 75 -10 43 0 75 4 75 10 0 6 -32 10 -75 10
-43 0 -75 -4 -75 -10z"/>
<path d="M1613 1929 c-15 -15 -5 -39 14 -39 13 0 13 3 3 15 -10 12 -10 15 3
15 8 0 17 -7 21 -15 3 -9 18 -15 34 -15 25 0 30 4 30 25 0 23 -4 25 -47 25
-26 0 -52 -5 -58 -11z m87 -19 c0 -13 -11 -13 -30 0 -12 8 -11 10 8 10 12 0
22 -4 22 -10z"/>
<path d="M1732 1900 c0 -14 2 -19 5 -12 2 6 2 18 0 25 -3 6 -5 1 -5 -13z"/>
<path d="M1752 1875 c0 -16 2 -22 5 -12 2 9 2 23 0 30 -3 6 -5 -1 -5 -18z"/>
<path d="M1771 1873 l1 -28 7 25 8 25 6 -25 5 -25 -1 24 c-3 36 -27 40 -26 4z"/>
<path d="M1811 1883 c-1 -12 4 -25 9 -28 12 -7 12 2 0 30 -8 19 -9 19 -9 -2z"/>
<path d="M842 1855 c0 -16 2 -22 5 -12 2 9 2 23 0 30 -3 6 -5 -1 -5 -18z"/>
<path d="M705 1845 c0 -13 3 -21 8 -18 4 2 7 10 7 18 0 8 -3 16 -7 18 -5 3 -8
-5 -8 -18z"/>
<path d="M737 1850 c3 -11 7 -20 9 -20 2 0 4 9 4 20 0 11 -4 20 -9 20 -5 0 -7
-9 -4 -20z"/>
<path d="M783 1855 c0 -8 4 -12 9 -9 4 3 8 9 8 15 0 5 -4 9 -8 9 -5 0 -9 -7
-9 -15z"/>
<path d="M817 1850 c3 -11 7 -20 9 -20 2 0 4 9 4 20 0 11 -4 20 -9 20 -5 0 -7
-9 -4 -20z"/>
<path d="M1620 1863 c39 -7 48 -23 15 -24 l-30 -1 30 -13 30 -14 -27 -1 c-16
0 -28 -4 -28 -10 0 -9 25 -7 90 7 l25 5 -30 13 -30 13 28 1 c15 1 27 5 27 10
0 9 -61 21 -100 20 l-25 -2 25 -4z"/>
<path d="M520 1850 c0 -5 25 -10 55 -10 30 0 55 -4 55 -10 0 -5 -25 -10 -55
-10 -32 0 -55 -4 -55 -10 0 -7 24 -10 63 -8 59 3 62 4 65 31 l3 27 -65 0 c-37
0 -66 -4 -66 -10z"/>
<path d="M1261 1844 c0 -11 3 -14 6 -6 3 7 2 16 -1 19 -3 4 -6 -2 -5 -13z"/>
<path d="M1440 1828 c0 -17 3 -28 7 -25 9 10 10 57 1 57 -4 0 -8 -14 -8 -32z"/>
<path d="M1500 1845 c0 -8 2 -15 4 -15 2 0 6 7 10 15 3 8 1 15 -4 15 -6 0 -10
-7 -10 -15z"/>
<path d="M1740 1797 c0 -28 -4 -33 -22 -33 -22 1 -23 -3 -23 -74 l0 -75 33 -2
32 -1 0 109 c0 66 -4 109 -10 109 -5 0 -10 -15 -10 -33z m0 -113 c0 -30 -4
-54 -10 -54 -6 0 -10 27 -10 61 0 37 4 58 10 54 6 -3 10 -31 10 -61z"/>
<path d="M1790 1815 c0 -8 7 -15 15 -15 8 0 15 7 15 15 0 8 -7 15 -15 15 -8 0
-15 -7 -15 -15z"/>
<path d="M1506 1812 c-3 -5 1 -9 9 -9 8 0 15 4 15 9 0 4 -4 8 -9 8 -6 0 -12
-4 -15 -8z"/>
<path d="M290 1280 l0 -530 69 0 c67 0 70 1 73 25 l3 24 44 -29 c53 -36 90
-38 128 -6 48 40 53 77 53 381 0 305 -5 341 -54 382 -38 32 -90 27 -141 -12
l-35 -26 0 160 0 161 -70 0 -70 0 0 -530z m212 123 c16 -15 18 -36 18 -256 0
-210 -2 -243 -17 -259 -20 -22 -31 -23 -55 -1 -16 15 -18 36 -18 256 0 210 2
243 17 259 20 22 31 23 55 1z"/>
<path d="M770 1280 l0 -530 70 0 c60 0 70 3 70 18 0 9 1 248 3 530 l2 512 -72
0 -73 0 0 -530z"/>
<path d="M987 1793 c-4 -3 -7 -14 -7 -24 0 -9 -6 -19 -12 -22 -10 -4 -10 -7 0
-18 7 -7 12 -38 12 -71 0 -32 4 -58 10 -58 6 0 10 28 10 64 0 42 4 66 13 70
10 5 10 7 0 12 -15 7 -17 34 -3 34 6 0 10 5 10 10 0 11 -23 14 -33 3z"/>
<path d="M1120 1700 c0 -82 3 -100 15 -100 12 0 15 18 15 100 0 82 -3 100 -15
100 -12 0 -15 -18 -15 -100z"/>
<path d="M1177 1793 c-3 -5 -5 -50 -6 -100 -2 -78 0 -93 13 -93 13 0 16 16 16
100 0 87 -8 119 -23 93z"/>
<path d="M524 1765 c-2 -24 0 -25 62 -25 36 0 64 4 64 10 0 6 -23 10 -50 10
-36 0 -52 4 -56 15 -9 23 -19 18 -20 -10z"/>
<path d="M698 1768 c5 -5 16 -8 23 -6 8 3 3 7 -10 11 -17 4 -21 3 -13 -5z"/>
<path d="M1440 1689 c0 -64 3 -79 15 -79 12 0 15 14 15 70 0 40 4 70 10 70 6
0 10 -30 10 -70 0 -56 3 -70 15 -70 12 0 15 14 15 70 0 40 4 70 10 70 6 0 10
-30 10 -70 0 -49 4 -70 13 -70 12 0 12 11 8 121 l-1 36 -60 0 -60 0 0 -78z"/>
<path d="M1602 1758 c-7 -7 -12 -37 -12 -68 0 -31 5 -61 12 -68 18 -18 46 -14
58 7 13 26 13 31 -5 31 -8 0 -15 -7 -15 -15 0 -18 -17 -20 -23 -2 -8 25 5 47
29 47 18 0 24 6 24 21 0 49 -39 76 -68 47z m38 -33 c0 -14 -4 -25 -9 -25 -12
0 -19 21 -13 38 8 21 22 13 22 -13z"/>
<path d="M1790 1690 c0 -64 3 -80 15 -80 12 0 15 16 15 80 0 64 -3 80 -15 80
-12 0 -15 -16 -15 -80z"/>
<path d="M1854 1756 c-10 -25 6 -40 22 -19 13 17 13 17 14 -1 0 -10 -11 -31
-25 -48 -39 -46 -31 -75 23 -75 l33 0 -3 76 c-3 75 -3 76 -31 79 -17 2 -29 -2
-33 -12z m44 -98 c-4 -27 -28 -36 -28 -10 0 20 8 32 22 32 5 0 8 -10 6 -22z"/>
<path d="M703 1743 c9 -2 25 -2 35 0 9 3 1 5 -18 5 -19 0 -27 -2 -17 -5z"/>
<path d="M1042 1738 c-6 -6 -12 -35 -12 -64 0 -55 15 -78 47 -72 15 3 18 14
18 73 0 63 -2 70 -20 73 -11 1 -26 -3 -33 -10z m38 -57 c0 -28 -4 -53 -10 -56
-6 -4 -10 15 -10 49 0 31 5 56 10 56 6 0 10 -22 10 -49z"/>
<path d="M1226 1735 c-3 -9 -6 -38 -6 -65 0 -51 16 -74 47 -68 15 3 18 14 18
73 0 68 -1 70 -26 73 -17 2 -29 -3 -33 -13z m44 -60 c0 -24 -4 -46 -9 -49 -9
-6 -19 57 -13 87 6 33 22 6 22 -38z"/>
<path d="M1314 1693 c9 -72 15 -93 27 -93 5 0 9 9 9 19 0 11 3 28 7 38 6 14 9
11 13 -16 9 -61 27 -46 38 31 6 40 9 74 7 76 -11 11 -25 -14 -26 -46 l-1 -37
-11 43 c-12 51 -27 55 -27 7 0 -19 -4 -35 -10 -35 -5 0 -10 16 -10 35 0 19 -5
35 -11 35 -8 0 -9 -18 -5 -57z"/>
<path d="M1960 1730 c0 -5 5 -10 10 -10 6 0 10 5 10 10 0 6 -4 10 -10 10 -5 0
-10 -4 -10 -10z"/>
<path d="M670 1726 c0 -2 7 -6 15 -10 8 -3 15 -1 15 4 0 6 -7 10 -15 10 -8 0
-15 -2 -15 -4z"/>
<path d="M524 1705 c-12 -29 16 -46 70 -43 47 3 51 5 51 28 0 23 -4 25 -58 28
-45 2 -59 0 -63 -13z m111 -15 c-3 -5 -26 -10 -51 -10 -24 0 -44 5 -44 10 0 6
23 10 51 10 31 0 48 -4 44 -10z"/>
<path d="M698 1693 c12 -2 30 -2 40 0 9 3 -1 5 -23 4 -22 0 -30 -2 -17 -4z"/>
<path d="M1968 1683 c7 -3 16 -2 19 1 4 3 -2 6 -13 5 -11 0 -14 -3 -6 -6z"/>
<path d="M696 1671 c-3 -4 6 -6 21 -3 18 3 24 1 19 -7 -4 -6 -2 -11 3 -11 6 0
11 7 11 15 0 16 -45 21 -54 6z"/>
<path d="M480 1638 c0 -23 40 -34 108 -30 77 5 83 22 7 22 -34 0 -55 4 -55 11
0 8 -5 8 -15 -1 -12 -10 -18 -10 -30 0 -12 10 -15 10 -15 -2z"/>
<path d="M698 1603 c12 -2 30 -2 40 0 9 3 -1 5 -23 4 -22 0 -30 -2 -17 -4z"/>
<path d="M1980 1575 c0 -8 5 -15 11 -15 5 0 7 5 4 10 -3 6 1 10 9 10 9 0 16
-4 16 -9 0 -16 51 -20 57 -4 8 21 -5 29 -27 15 -12 -7 -21 -8 -25 -2 -10 16
-45 12 -45 -5z m90 -5 c0 -5 -2 -10 -4 -10 -3 0 -8 5 -11 10 -3 6 -1 10 4 10
6 0 11 -4 11 -10z"/>
<path d="M194 1569 c12 -8 25 -8 40 -1 18 9 16 11 -19 11 -33 0 -37 -1 -21
-10z"/>
<path d="M722 1555 c0 -16 2 -22 5 -12 2 9 2 23 0 30 -3 6 -5 -1 -5 -18z"/>
<path d="M1359 1576 c-11 -11 3 -66 17 -66 10 0 14 12 13 38 l-2 37 -7 -35 -7
-35 -4 33 c-2 19 -7 31 -10 28z"/>
<path d="M1418 1573 c7 -3 16 -2 19 1 4 3 -2 6 -13 5 -11 0 -14 -3 -6 -6z"/>
<path d="M1450 1545 c0 -24 5 -35 15 -35 8 0 15 5 15 11 0 5 -4 7 -10 4 -5 -3
-10 -1 -10 4 0 6 5 11 10 11 6 0 10 9 10 20 0 11 -7 20 -15 20 -10 0 -15 -11
-15 -35z"/>
<path d="M1500 1545 c0 -19 2 -35 4 -35 2 0 6 16 8 35 2 19 0 35 -4 35 -4 0
-8 -16 -8 -35z"/>
<path d="M667 1549 c4 -13 8 -18 11 -10 2 7 -1 18 -6 23 -8 8 -9 4 -5 -13z"/>
<path d="M1421 1536 c7 -15 15 -23 17 -16 3 7 -3 19 -13 28 -15 16 -16 15 -4
-12z"/>
<path d="M182 1539 c7 -4 1 -9 -13 -12 -13 -2 1 -5 31 -5 37 0 48 2 35 7 l-20
8 20 5 c11 3 1 5 -22 5 -23 -1 -37 -4 -31 -8z"/>
<path d="M1120 1528 c-34 -18 -51 -35 -70 -73 -25 -49 -25 -51 -25 -310 0
-259 0 -261 25 -310 35 -68 93 -99 172 -92 74 6 113 35 145 103 24 53 24 56
21 316 l-3 263 -30 45 c-54 80 -146 103 -235 58z m127 -128 c15 -30 18 -464 4
-503 -18 -46 -73 -44 -90 3 -13 38 -14 435 -1 479 5 19 15 38 22 43 22 14 52
4 65 -22z"/>
<path d="M1580 1528 c-34 -18 -50 -35 -69 -73 -23 -44 -26 -65 -29 -180 -5
-151 7 -217 48 -274 l29 -40 -39 -39 c-32 -32 -40 -47 -40 -76 0 -48 13 -72
52 -92 l31 -16 -40 -24 c-71 -42 -88 -89 -58 -160 23 -56 85 -79 215 -79 88 0
111 3 145 22 97 51 130 151 86 250 -24 52 -86 86 -187 104 -91 15 -106 24
-102 57 3 25 8 27 58 33 62 7 85 17 117 51 42 45 53 99 53 265 0 114 3 155 13
157 6 3 24 7 40 10 26 6 27 9 27 66 0 72 -9 75 -74 26 -39 -30 -46 -33 -57
-20 -23 28 -87 54 -131 54 -26 0 -62 -9 -88 -22z m120 -128 c6 -12 9 -78 8
-171 -3 -143 -4 -152 -25 -166 -19 -13 -24 -12 -42 6 -19 19 -21 33 -21 160 0
77 4 151 10 165 12 32 54 36 70 6z m30 -702 c112 -26 80 -110 -42 -110 -68 0
-98 16 -98 52 0 36 31 70 64 70 14 0 48 -5 76 -12z"/>
<path d="M1980 1524 c0 -11 8 -14 32 -12 46 4 49 28 4 28 -26 0 -36 -4 -36
-16z m53 -1 c-7 -2 -21 -2 -30 0 -10 3 -4 5 12 5 17 0 24 -2 18 -5z"/>
<path d="M188 1493 c12 -2 32 -2 45 0 12 2 2 4 -23 4 -25 0 -35 -2 -22 -4z"/>
<path d="M1973 1493 c15 -2 39 -2 55 0 15 2 2 4 -28 4 -30 0 -43 -2 -27 -4z"/>
<path d="M2090 1496 c0 -2 7 -7 16 -10 8 -3 12 -2 9 4 -6 10 -25 14 -25 6z"/>
<path d="M190 1470 c21 -7 22 -8 5 -10 -12 -1 -15 -4 -7 -7 9 -3 10 -9 3 -17
-8 -9 -1 -11 24 -8 36 4 49 21 18 23 -16 0 -15 1 1 8 18 7 18 8 -5 14 -13 4
-33 6 -44 6 -16 -1 -16 -2 5 -9z"/>
<path d="M1980 1461 c0 -5 -8 -12 -17 -14 -10 -3 6 -5 35 -6 40 -1 52 2 52 14
0 10 -11 15 -35 15 -19 0 -35 -4 -35 -9z m53 -8 c-7 -2 -21 -2 -30 0 -10 3 -4
5 12 5 17 0 24 -2 18 -5z"/>
<path d="M105 1430 c-3 -5 1 -10 10 -10 9 0 13 5 10 10 -3 6 -8 10 -10 10 -2
0 -7 -4 -10 -10z"/>
<path d="M1980 1415 c0 -10 11 -15 35 -15 24 0 35 5 35 15 0 8 -5 15 -11 15
-5 0 -7 -4 -4 -10 3 -5 2 -10 -4 -10 -5 0 -13 5 -16 10 -10 15 -35 12 -35 -5z"/>
<path d="M215 1399 c-16 -5 -45 -8 -63 -5 -36 5 -40 0 -15 -20 16 -12 13 -13
-24 -14 -24 0 -43 -4 -43 -10 0 -6 38 -10 95 -10 57 0 95 4 95 10 0 6 -11 10
-25 10 -14 0 -25 5 -25 10 0 6 11 10 25 10 16 0 25 6 25 15 0 17 -3 17 -45 4z"/>
<path d="M2098 1393 c7 -3 16 -2 19 1 4 3 -2 6 -13 5 -11 0 -14 -3 -6 -6z"/>
<path d="M2002 1373 c-6 -2 -9 -9 -6 -15 4 -6 0 -15 -7 -20 -11 -8 -10 -8 4
-4 10 3 28 6 40 6 21 1 21 1 2 12 -19 11 -19 11 0 19 20 7 20 8 0 8 -11 -1
-26 -3 -33 -6z"/>
<path d="M2098 1373 c7 -3 16 -2 19 1 4 3 -2 6 -13 5 -11 0 -14 -3 -6 -6z"/>
<path d="M123 1303 c2 -26 4 -26 70 -27 47 -1 67 3 67 12 0 8 -18 12 -55 12
-40 0 -57 4 -61 15 -10 25 -23 17 -21 -12z"/>
<path d="M1958 1289 c-25 -14 -24 -65 1 -79 32 -17 167 -13 185 6 32 31 5 84
-42 84 -31 0 -27 -26 4 -34 22 -6 24 -9 13 -22 -7 -8 -24 -14 -38 -12 -21 2
-27 9 -29 36 -3 30 -6 32 -40 32 -20 0 -45 -5 -54 -11z m67 -39 c0 -18 -33
-26 -47 -12 -6 6 -7 15 -3 22 10 16 50 8 50 -10z"/>
<path d="M124 1235 c-14 -35 3 -46 68 -43 60 3 63 4 63 28 0 24 -3 25 -63 28
-49 2 -64 0 -68 -13z m116 -15 c0 -5 -22 -10 -50 -10 -27 0 -50 5 -50 10 0 6
23 10 50 10 28 0 50 -4 50 -10z"/>
<path d="M2085 1164 c-48 -14 -90 -14 -127 1 -12 5 -18 2 -18 -8 0 -8 15 -21
33 -28 32 -13 31 -14 -35 -17 -51 -2 -68 -6 -68 -17 0 -13 25 -15 145 -15 122
0 145 2 145 15 0 11 -11 15 -38 15 -55 0 -61 13 -10 25 27 7 44 17 46 28 4 20
-6 20 -73 1z"/>
<path d="M120 1161 c0 -6 13 -11 29 -11 17 0 33 -4 36 -10 4 -6 -6 -10 -23
-10 -44 0 -47 -13 -5 -26 l38 -12 -37 -1 c-24 -1 -38 -6 -38 -14 0 -10 14 -11
70 -4 48 7 70 14 70 23 0 9 -13 14 -37 15 l-38 2 38 10 c62 18 48 30 -50 42
-36 5 -53 3 -53 -4z"/>
<path d="M68 1083 c7 -3 16 -2 19 1 4 3 -2 6 -13 5 -11 0 -14 -3 -6 -6z"/>
<path d="M103 1040 c-13 -5 -23 -13 -23 -19 0 -13 38 -17 110 -11 53 4 65 8
68 23 3 14 -1 18 -15 13 -27 -8 -75 -10 -98 -3 -11 3 -30 2 -42 -3z"/>
<path d="M1872 1023 c5 -25 28 -28 28 -4 0 12 -6 21 -16 21 -9 0 -14 -7 -12
-17z"/>
<path d="M1940 1021 c0 -18 8 -19 107 -18 94 2 108 4 111 20 3 15 -7 17 -107
17 -103 0 -111 -1 -111 -19z"/>
<path d="M124 965 c-14 -35 3 -46 68 -43 60 3 63 4 63 28 0 18 -6 26 -22 28
-13 2 -23 -1 -23 -7 0 -6 7 -11 15 -11 8 0 15 -4 15 -10 0 -19 -42 -10 -47 10
-6 24 -60 28 -69 5z m56 -15 c0 -5 -9 -10 -20 -10 -11 0 -20 5 -20 10 0 6 9
10 20 10 11 0 20 -4 20 -10z"/>
<path d="M1870 950 c0 -19 7 -20 145 -20 138 0 145 1 145 20 0 19 -7 20 -145
20 -138 0 -145 -1 -145 -20z"/>
<path d="M1994 895 c4 -11 -2 -15 -20 -15 -14 0 -22 -4 -19 -10 3 -5 37 -10
76 -10 67 0 69 1 69 25 0 24 -3 25 -56 25 -46 0 -55 -3 -50 -15z m96 -5 c0 -5
-18 -10 -40 -10 -22 0 -40 5 -40 10 0 6 18 10 40 10 22 0 40 -4 40 -10z"/>
<path d="M134 892 c-7 -4 -12 -19 -12 -34 0 -28 1 -28 69 -28 39 0 69 4 69 10
0 6 -24 10 -54 10 -30 0 -58 5 -61 10 -4 6 17 10 54 10 48 0 61 3 61 15 0 12
-13 15 -57 15 -32 0 -63 -4 -69 -8z"/>
<path d="M1915 870 c3 -5 8 -10 11 -10 2 0 4 5 4 10 0 6 -5 10 -11 10 -5 0 -7
-4 -4 -10z"/>
<path d="M1993 824 c-10 -28 47 -45 91 -28 22 8 21 44 -1 43 -11 0 -13 -3 -5
-6 19 -8 14 -23 -8 -23 -11 0 -20 7 -20 15 0 21 -49 20 -57 -1z m47 -4 c0 -5
-9 -10 -21 -10 -11 0 -17 5 -14 10 3 6 13 10 21 10 8 0 14 -4 14 -10z"/>
<path d="M102 780 c0 -19 2 -27 5 -17 2 9 2 25 0 35 -3 9 -5 1 -5 -18z"/>
<path d="M122 780 c0 -19 2 -27 5 -17 2 9 2 25 0 35 -3 9 -5 1 -5 -18z"/>
<path d="M140 801 c0 -6 4 -13 10 -16 6 -3 7 1 4 9 -7 18 -14 21 -14 7z"/>
<path d="M256 776 c6 -15 4 -17 -6 -11 -9 6 -11 4 -5 -4 5 -9 10 -10 18 -2 8
8 7 14 -2 24 -10 10 -11 8 -5 -7z"/>
<path d="M661 763 c0 -11 3 -13 6 -5 2 6 9 12 14 12 4 0 6 -7 2 -16 -4 -12 0
-15 18 -12 23 3 41 38 20 38 -6 0 -8 -7 -5 -15 4 -8 1 -15 -5 -15 -6 0 -11 7
-11 15 0 8 -9 15 -20 15 -13 0 -20 -6 -19 -17z"/>
<path d="M1995 770 c3 -6 18 -10 33 -11 26 0 25 -1 -8 -14 -33 -13 -33 -14 -9
-14 15 -1 42 5 60 13 33 14 34 14 9 20 -67 13 -91 15 -85 6z"/>
<path d="M270 707 c0 -20 5 -37 10 -37 6 0 8 13 5 32 -8 46 -15 48 -15 5z"/>
<path d="M860 702 c0 -22 3 -43 8 -45 8 -6 7 71 -2 80 -3 4 -6 -12 -6 -35z"/>
<path d="M340 702 c0 -17 3 -33 8 -35 9 -6 8 50 -1 60 -4 3 -7 -8 -7 -25z"/>
<path d="M626 718 c3 -5 10 -6 15 -3 13 9 11 12 -6 12 -8 0 -12 -4 -9 -9z"/>
<path d="M660 718 c0 -19 25 -25 35 -8 3 6 11 10 16 10 6 0 7 -4 4 -10 -3 -5
-1 -10 4 -10 6 0 11 7 11 15 0 18 -21 20 -38 3 -10 -10 -15 -10 -22 2 -8 13
-10 12 -10 -2z"/>
<path d="M980 720 c0 -5 5 -10 11 -10 5 0 7 5 4 10 -3 6 -8 10 -11 10 -2 0 -4
-4 -4 -10z"/>
<path d="M2050 720 c0 -5 -14 -10 -32 -10 -17 0 -29 -3 -25 -6 9 -9 107 6 107
17 0 5 -11 9 -25 9 -14 0 -25 -4 -25 -10z"/>
<path d="M144 706 c-3 -8 -4 -23 -1 -33 3 -12 6 -7 7 12 l2 30 8 -30 8 -30 2
30 2 30 8 -30 8 -30 1 33 c1 26 -3 32 -19 32 -11 0 -23 -6 -26 -14z"/>
<path d="M209 712 c9 -7 10 -12 2 -16 -17 -11 -13 -36 5 -36 20 0 15 52 -6 57
-12 4 -12 3 -1 -5z"/>
<path d="M240 690 c0 -16 2 -30 4 -30 2 0 6 14 8 30 3 17 1 30 -4 30 -4 0 -8
-13 -8 -30z"/>
<path d="M304 705 c-4 -8 -4 -22 0 -30 6 -17 26 -20 26 -4 0 5 -4 7 -10 4 -6
-3 -10 4 -10 17 0 18 2 20 10 8 8 -13 10 -12 10 3 0 21 -18 23 -26 2z"/>
<path d="M372 690 c0 -19 2 -27 5 -17 2 9 2 25 0 35 -3 9 -5 1 -5 -18z"/>
<path d="M390 690 c0 -16 2 -30 4 -30 2 0 6 14 8 30 3 17 1 30 -4 30 -4 0 -8
-13 -8 -30z"/>
<path d="M438 713 c7 -3 16 -2 19 1 4 3 -2 6 -13 5 -11 0 -14 -3 -6 -6z"/>
<path d="M753 685 c0 -22 2 -30 4 -17 2 12 2 30 0 40 -3 9 -5 -1 -4 -23z"/>
<path d="M780 716 c0 -2 7 -7 16 -10 8 -3 12 -2 9 4 -6 10 -25 14 -25 6z"/>
<path d="M820 706 c0 -8 5 -18 10 -21 6 -3 10 -11 10 -16 0 -6 -4 -7 -10 -4
-5 3 -10 1 -10 -4 0 -14 17 -14 26 0 3 6 1 16 -5 22 -15 15 -14 30 1 21 7 -4
8 -3 4 4 -10 17 -26 15 -26 -2z"/>
<path d="M894 708 c-4 -7 -3 -8 4 -4 7 4 12 3 12 -3 0 -5 -4 -13 -10 -16 -15
-10 -12 -35 5 -35 10 0 15 11 15 35 0 35 -12 46 -26 23z"/>
<path d="M941 683 l2 -38 7 35 7 35 5 -35 5 -35 1 38 c2 27 -2 37 -13 37 -11
0 -15 -10 -14 -37z"/>
<path d="M435 679 c-4 -6 -5 -12 -2 -15 2 -3 7 2 10 11 7 17 1 20 -8 4z"/>
<path d="M688 683 c17 -2 32 -8 32 -13 0 -5 -15 -11 -32 -13 -32 -4 -32 -4 5
-5 31 -2 37 1 37 18 0 17 -6 20 -37 18 -37 -1 -37 -1 -5 -5z"/>
<path d="M1130 655 c0 -24 -5 -35 -15 -35 -8 0 -15 -9 -15 -20 0 -11 7 -20 15
-20 12 0 15 -17 15 -93 0 -111 12 -134 67 -128 16 2 9 32 -10 43 -23 12 -25
178 -3 178 8 0 17 7 20 16 9 23 8 24 -14 24 -16 0 -20 7 -20 35 0 28 -4 35
-20 35 -16 0 -20 -7 -20 -35z"/>
<path d="M496 665 c-22 -22 -9 -45 28 -46 89 -4 119 8 100 39 -13 20 -44 29
-44 13 0 -6 7 -11 16 -11 23 0 11 -24 -14 -28 -18 -3 -22 2 -22 22 0 21 -5 26
-24 26 -14 0 -31 -7 -40 -15z m44 -21 c0 -9 -7 -14 -17 -12 -25 5 -28 28 -4
28 12 0 21 -6 21 -16z"/>
<path d="M986 667 c3 -10 9 -15 12 -12 3 3 0 11 -7 18 -10 9 -11 8 -5 -6z"/>
<path d="M1238 649 c-7 -4 -6 -8 1 -10 18 -6 91 2 91 10 0 8 -79 8 -92 0z"/>
<path d="M270 620 c0 -5 5 -10 10 -10 6 0 10 5 10 10 0 6 -4 10 -10 10 -5 0
-10 -4 -10 -10z"/>
<path d="M330 610 c0 -11 -6 -19 -12 -17 -9 1 -13 -12 -13 -42 0 -34 4 -45 18
-47 15 -2 17 7 17 62 0 35 -2 64 -5 64 -3 0 -5 -9 -5 -20z m-3 -77 c-3 -10 -5
-2 -5 17 0 19 2 27 5 18 2 -10 2 -26 0 -35z"/>
<path d="M712 621 c-7 -4 -24 -6 -38 -3 l-24 4 -1 -128 c0 -71 -1 -150 -2
-177 -2 -43 0 -47 21 -47 20 0 22 5 22 50 0 49 0 49 29 44 44 -9 53 18 49 142
-2 80 -7 107 -18 114 -18 12 -22 12 -38 1z m8 -132 c0 -72 -3 -89 -15 -89 -12
0 -15 16 -15 88 0 49 3 92 6 95 17 17 24 -11 24 -94z"/>
<path d="M829 611 c-22 -18 -24 -26 -24 -120 0 -111 10 -134 60 -133 50 0 60
22 60 133 0 94 -2 102 -24 120 -29 24 -43 24 -72 0z m53 -38 c5 -65 4 -151 -4
-166 -18 -35 -28 -4 -28 89 0 77 3 94 15 94 8 0 16 -8 17 -17z"/>
<path d="M993 615 c-45 -31 -38 -81 19 -141 19 -21 29 -40 26 -55 -4 -30 -28
-37 -35 -10 -7 27 -43 29 -43 2 0 -48 88 -73 110 -32 21 40 12 78 -30 126 -43
50 -45 53 -30 75 9 13 12 13 24 -2 18 -24 46 -23 46 1 0 20 -34 51 -55 51 -6
0 -20 -7 -32 -15z"/>
<path d="M1256 611 c-4 -5 3 -7 14 -4 23 6 26 13 6 13 -8 0 -17 -4 -20 -9z"/>
<path d="M1316 605 c4 -8 8 -15 10 -15 2 0 4 7 4 15 0 8 -4 15 -10 15 -5 0 -7
-7 -4 -15z"/>
<path d="M222 575 c0 -39 12 -83 20 -70 3 6 8 30 12 55 5 39 5 42 -5 20 l-12
-25 -7 25 c-8 24 -8 24 -8 -5z"/>
<path d="M270 550 c0 -32 4 -49 10 -45 6 3 10 24 10 45 0 21 -4 42 -10 45 -6
4 -10 -13 -10 -45z"/>
<path d="M364 587 c-10 -28 0 -82 16 -82 8 0 16 9 17 20 2 11 0 14 -3 8 -8
-18 -24 -16 -24 2 0 8 7 15 16 15 10 0 14 7 12 22 -4 26 -26 36 -34 15z m26
-17 c0 -5 -4 -10 -10 -10 -5 0 -10 5 -10 10 0 6 5 10 10 10 6 0 10 -4 10 -10z"/>
<path d="M422 588 c-14 -14 -15 -57 -3 -77 14 -22 41 4 41 39 0 34 -21 55 -38
38z m15 -55 c-3 -10 -5 -2 -5 17 0 19 2 27 5 18 2 -10 2 -26 0 -35z"/>
<path d="M493 575 c0 -24 2 -25 68 -25 39 0 69 4 69 10 0 6 -25 10 -55 10 -40
0 -57 4 -61 15 -9 23 -21 18 -21 -10z"/>
<path d="M1255 561 c-3 -5 0 -13 6 -17 7 -4 9 -3 5 4 -4 7 7 12 31 15 l38 4
-37 1 c-20 1 -39 -2 -43 -7z"/>
<path d="M533 522 c-23 -2 -44 -9 -46 -17 -7 -17 19 -53 30 -41 4 5 2 11 -4
13 -20 7 -15 23 7 23 10 0 24 -9 30 -21 9 -15 19 -19 43 -17 27 3 32 7 33 33
2 34 1 34 -93 27z m77 -32 c0 -5 -9 -10 -19 -10 -11 0 -23 5 -26 10 -4 6 5 10
19 10 14 0 26 -4 26 -10z"/>
<path d="M1278 503 c12 -2 30 -2 40 0 9 3 -1 5 -23 4 -22 0 -30 -2 -17 -4z"/>
<path d="M370 452 c0 -22 3 -43 8 -45 8 -6 7 71 -2 80 -3 4 -6 -12 -6 -35z"/>
<path d="M1255 471 c-6 -11 13 -26 22 -17 4 3 0 6 -8 7 -8 0 -6 4 6 9 16 7 17
9 3 9 -9 1 -19 -3 -23 -8z"/>
<path d="M1315 471 c3 -5 -3 -12 -12 -14 -14 -4 -13 -5 5 -6 13 -1 22 5 22 14
0 8 -5 15 -11 15 -5 0 -8 -4 -4 -9z"/>
<path d="M313 435 c1 -19 4 -35 7 -35 4 0 6 16 6 35 -1 19 -4 35 -7 35 -4 0
-7 -16 -6 -35z"/>
<path d="M352 440 c0 -19 2 -27 5 -17 2 9 2 25 0 35 -3 9 -5 1 -5 -18z"/>
<path d="M400 441 c0 -32 14 -49 26 -30 4 8 3 9 -4 5 -8 -5 -12 2 -12 21 0 22
2 25 11 13 9 -12 10 -12 7 -1 -8 29 -28 23 -28 -8z"/>
<path d="M1401 444 c0 -11 3 -14 6 -6 3 7 2 16 -1 19 -3 4 -6 -2 -5 -13z"/>
<path d="M1810 456 c0 -2 11 -6 25 -8 14 -3 25 -1 25 3 0 5 -11 9 -25 9 -14 0
-25 -2 -25 -4z"/>
<path d="M1471 434 c0 -11 3 -14 6 -6 3 7 2 16 -1 19 -3 4 -6 -2 -5 -13z"/>
<path d="M1491 434 c0 -11 3 -14 6 -6 3 7 2 16 -1 19 -3 4 -6 -2 -5 -13z"/>
<path d="M496 428 c-8 -5 -13 -15 -10 -23 5 -11 -1 -15 -20 -15 -14 0 -26 -4
-26 -10 0 -6 38 -10 95 -10 57 0 95 4 95 10 0 6 -27 10 -61 10 -43 0 -60 3
-57 12 3 8 25 12 55 13 45 0 86 12 55 17 -42 5 -114 3 -126 -4z"/>
<path d="M1420 430 c0 -5 5 -10 10 -10 6 0 10 5 10 10 0 6 -4 10 -10 10 -5 0
-10 -4 -10 -10z"/>
<path d="M1825 430 c-3 -5 -1 -10 4 -10 6 0 11 5 11 10 0 6 -2 10 -4 10 -3 0
-8 -4 -11 -10z"/>
<path d="M1250 420 c0 -5 5 -10 11 -10 5 0 7 5 4 10 -3 6 -8 10 -11 10 -2 0
-4 -4 -4 -10z"/>
<path d="M1550 421 c0 -6 4 -13 10 -16 6 -3 7 1 4 9 -7 18 -14 21 -14 7z"/>
<path d="M1650 325 c0 -57 4 -95 10 -95 6 0 10 11 10 24 0 36 17 40 24 6 3
-17 10 -30 15 -30 5 0 5 17 -1 43 -5 23 -7 54 -4 70 7 33 -8 36 -20 5 -6 -19
-8 -14 -11 25 -7 84 -23 50 -23 -48z"/>
<path d="M1826 382 c-2 -4 4 -9 15 -9 10 -1 19 2 19 8 0 11 -27 12 -34 1z"/>
<path d="M1268 363 c12 -2 32 -2 45 0 12 2 2 4 -23 4 -25 0 -35 -2 -22 -4z"/>
<path d="M1410 299 c0 -39 4 -69 10 -69 6 0 10 25 10 55 0 40 4 57 15 61 23 9
18 22 -10 22 -24 0 -25 -3 -25 -69z"/>
<path d="M1480 355 c-7 -9 -10 -18 -6 -22 3 -4 13 2 20 13 14 18 15 18 21 1 5
-12 -1 -25 -20 -42 -37 -35 -31 -69 13 -71 l32 -2 0 53 c0 30 -3 60 -6 69 -8
20 -38 21 -54 1z m38 -77 c-4 -27 -28 -36 -28 -10 0 20 8 32 22 32 5 0 8 -10
6 -22z"/>
<path d="M1560 300 c0 -40 4 -70 10 -70 6 0 10 27 10 60 0 48 3 60 16 60 13 0
15 -10 12 -60 -2 -44 0 -60 10 -60 10 0 12 17 10 67 l-3 68 -32 2 -33 3 0 -70z"/>
<path d="M486 334 c-7 -19 10 -44 31 -44 8 0 26 9 40 20 39 30 73 24 41 -8
-18 -18 -4 -24 18 -7 15 11 17 17 8 32 -16 26 -47 27 -69 3 -19 -21 -55 -28
-55 -10 0 6 5 10 10 10 6 0 10 5 10 10 0 16 -27 11 -34 -6z"/>
<path d="M1268 333 c12 -2 32 -2 45 0 12 2 2 4 -23 4 -25 0 -35 -2 -22 -4z"/>
<path d="M1175 320 c3 -5 10 -10 16 -10 5 0 9 5 9 10 0 6 -7 10 -16 10 -8 0
-12 -4 -9 -10z"/>
<path d="M1350 210 c0 -100 3 -120 15 -120 13 0 15 20 15 120 0 100 -2 120
-15 120 -12 0 -15 -20 -15 -120z"/>
<path d="M720 280 c0 -19 5 -21 48 -18 34 2 47 7 47 18 0 11 -13 16 -47 18
-43 3 -48 1 -48 -18z m90 0 c0 -5 -18 -10 -40 -10 -22 0 -40 5 -40 10 0 6 18
10 40 10 22 0 40 -4 40 -10z"/>
<path d="M862 258 c-19 -19 -14 -46 13 -82 25 -33 33 -66 15 -66 -5 0 -13 8
-19 18 -7 13 -13 14 -21 6 -9 -9 -7 -17 9 -33 25 -25 35 -26 55 -5 23 23 19
57 -9 84 -25 23 -35 70 -15 70 6 0 10 -4 10 -10 0 -5 7 -10 15 -10 8 0 15 4
15 8 0 14 -23 32 -40 32 -9 0 -21 -5 -28 -12z"/>
<path d="M960 251 c-11 -21 -14 -110 -4 -135 12 -31 42 -38 64 -16 26 26 29
130 4 154 -21 22 -51 20 -64 -3z m50 -77 c0 -50 -3 -64 -15 -64 -12 0 -15 14
-15 63 0 35 3 67 6 70 16 15 24 -9 24 -69z"/>
<path d="M1070 249 c-14 -26 -7 -133 10 -154 23 -28 53 -15 64 28 5 20 3 27
-9 27 -9 0 -15 -9 -15 -21 0 -12 -5 -19 -12 -17 -17 6 -23 117 -8 132 8 8 12
4 16 -12 4 -12 13 -22 20 -22 17 0 17 1 4 34 -12 33 -54 36 -70 5z"/>
<path d="M1176 262 c-3 -5 -4 -45 -4 -90 2 -60 5 -82 15 -82 10 0 13 23 13 90
0 80 -8 107 -24 82z"/>
<path d="M1245 248 c-11 -16 -12 -24 -4 -27 7 -2 16 4 21 13 10 18 28 13 28
-9 0 -7 -13 -27 -30 -43 -32 -32 -39 -72 -17 -90 7 -6 18 -7 26 -3 7 5 22 6
32 4 17 -5 19 1 19 66 0 40 -5 81 -10 92 -14 26 -45 24 -65 -3z m41 -124 c-3
-8 -10 -14 -16 -14 -14 0 -13 43 3 59 10 10 13 8 15 -9 2 -12 1 -28 -2 -36z"/>
<path d="M596 233 c6 -4 14 -15 17 -23 5 -11 6 -9 4 4 -1 11 -9 21 -17 23 -10
3 -11 2 -4 -4z"/>
<path d="M720 220 c0 -17 7 -20 51 -20 42 0 50 3 47 17 -2 9 -10 19 -18 21
-13 5 -13 3 -1 -11 12 -15 11 -17 -8 -17 -12 0 -21 6 -21 15 0 9 -9 15 -25 15
-18 0 -25 -5 -25 -20z m40 0 c0 -5 -7 -10 -15 -10 -8 0 -15 5 -15 10 0 6 7 10
15 10 8 0 15 -4 15 -10z"/>
<path d="M695 210 c-3 -5 -1 -10 4 -10 6 0 11 5 11 10 0 6 -2 10 -4 10 -3 0
-8 -4 -11 -10z"/>
<path d="M1424 198 c-3 -5 -9 -6 -13 -4 -4 3 -8 -1 -8 -8 0 -11 4 -12 19 -3
13 9 23 9 36 0 15 -9 19 -8 19 3 0 7 -4 11 -9 8 -4 -3 -8 -1 -8 4 0 11 -29 11
-36 0z"/>
<path d="M1490 175 c0 -14 3 -25 8 -25 4 0 7 11 7 25 0 14 -3 25 -7 25 -5 0
-8 -11 -8 -25z"/>
<path d="M1522 175 c0 -16 2 -22 5 -12 2 9 2 23 0 30 -3 6 -5 -1 -5 -18z"/>
<path d="M1583 185 c0 -8 4 -12 9 -9 5 3 6 10 3 15 -9 13 -12 11 -12 -6z"/>
<path d="M1561 174 c0 -11 3 -14 6 -6 3 7 2 16 -1 19 -3 4 -6 -2 -5 -13z"/>
<path d="M720 160 c0 -24 22 -26 56 -4 13 9 28 13 32 9 4 -4 1 -10 -5 -12 -7
-3 -13 -9 -13 -14 0 -4 7 -6 15 -3 8 4 15 13 15 20 0 22 -29 28 -49 10 -22
-20 -45 -21 -37 -1 3 8 1 15 -4 15 -6 0 -10 -9 -10 -20z"/>
</g>
</svg>
